<svg width="163" height="156" viewBox="0 0 163 156" fill="none" xmlns="http://www.w3.org/2000/svg">
<circle cx="79.0668" cy="92.5434" r="62.5434" fill="#F4F2F4"/>
<path fill-rule="evenodd" clip-rule="evenodd" d="M46.0083 0.568848C45.1262 0.568848 44.4103 1.28475 44.4103 2.16685V4.19152C44.4103 5.07361 45.1262 5.78952 46.0083 5.78952C46.8904 5.78952 47.6063 5.07361 47.6063 4.19152V2.16685C47.6063 1.28475 46.892 0.568848 46.0083 0.568848ZM78.1475 6.70357L83.9339 7.54412C84.5364 7.63201 85.0349 8.05389 85.2251 8.63076C85.4137 9.20924 85.257 9.84365 84.8208 10.2687L80.634 14.35L81.6216 20.1124C81.7239 20.7117 81.4778 21.3173 80.9856 21.6753C80.7075 21.8782 80.3767 21.9805 80.046 21.9805C79.7919 21.9805 79.5362 21.9197 79.3029 21.7967L74.127 19.0753L68.951 21.7967C68.4125 22.0795 67.7605 22.0332 67.2683 21.6753C66.7762 21.3173 66.5301 20.7117 66.6323 20.1124L67.6199 14.35L63.4331 10.2687C62.9969 9.84365 62.8403 9.20924 63.0288 8.63076C63.2174 8.05229 63.716 7.63042 64.3184 7.54253L70.1048 6.70198L72.6936 1.45893C72.962 0.914016 73.5181 0.568848 74.1254 0.568848C74.7342 0.568848 75.2903 0.914016 75.5588 1.46053L78.1475 6.70357ZM77.3389 14.0624C77.2511 13.5446 77.422 13.0157 77.7992 12.6481L80.2649 10.24L76.8516 9.74297C76.3306 9.66787 75.8816 9.34028 75.6483 8.86887L74.1222 5.77514L72.5961 8.86887C72.3628 9.34028 71.9137 9.66787 71.3928 9.74297L67.9795 10.24L70.45 12.6481C70.8271 13.0157 70.9997 13.5446 70.9102 14.0624L70.3269 17.4613L73.3807 15.8569C73.6124 15.7339 73.8681 15.6732 74.1238 15.6732C74.381 15.6732 74.6351 15.7339 74.8684 15.8569L77.9222 17.4613L77.3389 14.0624ZM131.382 33.1761C131.86 33.5532 132.082 34.1685 131.956 34.7629C131.829 35.3574 131.376 35.8288 130.784 35.979L126.738 37.0081L125.292 40.9264C125.083 41.4969 124.566 41.898 123.961 41.9619C123.905 41.9667 123.849 41.9699 123.793 41.9699C123.25 41.9699 122.737 41.6919 122.443 41.2252L120.214 37.6937L116.041 37.5275C115.434 37.5035 114.892 37.136 114.644 36.5799C114.398 36.0237 114.488 35.3766 114.876 34.9083L117.545 31.6964L116.412 27.6774C116.247 27.0925 116.428 26.4645 116.88 26.057C117.332 25.6495 117.976 25.5345 118.542 25.7598L122.42 27.3067L125.893 24.9879C126.398 24.6508 127.051 24.6284 127.579 24.9336C128.106 25.2372 128.414 25.8141 128.374 26.4214L128.103 30.5889L131.382 33.1761ZM124.031 35.1129C124.213 34.6191 124.627 34.2468 125.137 34.1173L126.86 33.6811L125.463 32.5801C125.049 32.2541 124.824 31.7475 124.857 31.2218L124.974 29.4464L123.496 30.4339C123.058 30.7264 122.505 30.7839 122.016 30.5889L120.364 29.9306L120.846 31.642C120.99 32.1486 120.873 32.6919 120.538 33.0962L119.402 34.4641L121.179 34.5344C121.704 34.5552 122.185 34.8332 122.467 35.2775L123.416 36.7812L124.031 35.1129ZM44.4103 11.8618C44.4103 10.9797 45.1262 10.2638 46.0083 10.2638C46.892 10.2638 47.6063 10.9781 47.6063 11.8618V13.8913C47.6063 14.7734 46.8904 15.4893 46.0083 15.4893C45.1262 15.4893 44.4103 14.7734 44.4103 13.8913V11.8618ZM51.8698 6.43036H49.8435C48.9614 6.43036 48.2455 7.14627 48.2455 8.02836C48.2455 8.91046 48.9614 9.62636 49.8435 9.62636H51.8698C52.7519 9.62636 53.4678 8.91046 53.4678 8.02836C53.4678 7.14627 52.7519 6.43036 51.8698 6.43036ZM42.0129 9.62636H40.1465C39.2644 9.62636 38.5485 8.91206 38.5469 8.02836C38.5469 7.14627 39.2628 6.43036 40.1449 6.43036H42.0129C42.895 6.43036 43.6109 7.14627 43.6109 8.02836C43.6109 8.91046 42.895 9.62636 42.0129 9.62636Z" fill="#F4F2F4"/>
<g clip-path="url(#clip0)">
<path d="M58.7663 103.259L49.0898 103.269L49.0948 108.219L58.7713 108.209L58.7663 103.259Z" fill="#B41A83"/>
<path d="M67.2903 75.9089L49.0625 75.9272L49.0798 93.1667L67.3077 93.1483L67.2903 75.9089Z" fill="#B41A83"/>
<path d="M62.8265 80.1393L53.5391 80.1487L53.5479 88.9314L62.8353 88.922L62.8265 80.1393Z" fill="#F8FAFB"/>
<path d="M72.9421 103.243L63.2656 103.253L63.2706 108.203L72.9471 108.193L72.9421 103.243Z" fill="#B41A83"/>
<path d="M87.1218 103.23L77.4453 103.24L77.4503 108.19L87.1268 108.18L87.1218 103.23Z" fill="#B41A83"/>
<path d="M101.301 103.217L91.625 103.227L91.63 108.177L101.306 108.167L101.301 103.217Z" fill="#B41A83"/>
<path d="M109.996 79.7523L110.027 112.078C110.027 112.859 109.725 113.592 109.173 114.144C108.621 114.696 107.888 115.001 107.107 115.001L45.2179 115.064C44.4372 115.064 43.7037 114.762 43.1517 114.21C42.5997 113.658 42.2947 112.925 42.2947 112.144L42.2527 71.4507C42.25 69.8392 43.5618 68.5275 45.1706 68.5248L100.425 68.4696L105.056 63.9561L45.7174 64.0165C41.422 64.0191 37.9283 67.518 37.9336 71.8161L37.973 111.792C37.9757 113.874 38.7879 115.829 40.2601 117.299C41.5219 118.558 43.1412 119.334 44.8867 119.525C45.1785 119.557 45.4729 119.575 45.7726 119.573L106.565 119.512C108.647 119.51 110.603 118.697 112.073 117.225C113.542 115.753 114.352 113.795 114.349 111.713L114.312 75.3964L109.996 79.7523Z" fill="#73308B"/>
<path d="M91.2297 91.8892L79.7578 80.2175L82.8676 77.1524L91.2271 85.6617L117.499 59.1506L120.614 62.2105L91.2297 91.8892Z" fill="#B41A83"/>
</g>
<g clip-path="url(#clip1)">
<path d="M1.86534 116.992C0.802712 117.001 -0.0209326 117.841 0.000405356 118.891C0.0217433 119.898 0.832586 120.679 1.85681 120.675C2.92797 120.671 3.73455 119.847 3.70894 118.78C3.68334 117.752 2.89383 116.988 1.86534 116.992Z" fill="#F4F2F4"/>
<path d="M7.65075 107.454C7.73183 108.577 8.55974 109.357 9.5797 109.323C10.5655 109.289 11.2867 108.534 11.3507 107.424C11.3849 106.835 11.355 106.246 11.355 105.568C12.0976 105.568 12.6609 105.589 13.2242 105.564C14.3295 105.508 15.0721 104.787 15.0977 103.78C15.1233 102.73 14.3679 101.94 13.2285 101.872C12.6438 101.838 12.0506 101.868 11.355 101.868C11.355 101.177 11.3764 100.652 11.3507 100.127C11.2953 98.936 10.5868 98.1593 9.56689 98.1209C8.5128 98.0825 7.70196 98.9062 7.64221 100.105C7.61661 100.656 7.63794 101.211 7.63794 101.808C6.05467 101.966 4.01903 101.407 3.98489 103.677C3.94648 106.063 6.08027 105.41 7.64648 105.649C7.64221 106.323 7.60807 106.891 7.65075 107.454Z" fill="#73308B"/>
</g>
<path fill-rule="evenodd" clip-rule="evenodd" d="M25.9411 49.7324L23.7118 53.264C23.4178 53.7306 22.9049 54.0087 22.3631 54.0087C22.3072 54.0087 22.2513 54.0071 22.1953 54.0007C21.5897 53.9368 21.0735 53.5357 20.8626 52.9652L19.4164 49.0469L15.3687 48.0178C14.779 47.8676 14.3252 47.3962 14.1989 46.8017C14.0727 46.2073 14.2948 45.592 14.7726 45.2149L18.0517 42.6277L17.7801 38.4601C17.7401 37.8529 18.0501 37.276 18.5759 36.9724C19.1032 36.6672 19.7568 36.6896 20.2618 37.0267L23.7342 39.3454L27.6142 37.7986C28.1783 37.5733 28.8223 37.6883 29.2745 38.0958C29.7251 38.5017 29.9073 39.1313 29.7427 39.7162L28.6097 43.7351L31.2784 46.9471C31.6683 47.4153 31.7578 48.0625 31.5101 48.6186C31.2624 49.1747 30.7207 49.5423 30.1134 49.5663L25.9411 49.7324ZM21.0176 46.1561C21.5274 46.2872 21.9413 46.6579 22.1234 47.1517L22.7371 48.8184L23.6863 47.3147C23.9675 46.8704 24.4485 46.5924 24.9743 46.5716L26.7512 46.5013L25.6151 45.1334C25.2795 44.7291 25.1644 44.1858 25.3067 43.6792L25.7892 41.9678L24.1369 42.6261C23.6479 42.8227 23.095 42.7636 22.6572 42.4711L21.179 41.4836L21.2941 43.2589C21.3292 43.7847 21.1023 44.2912 20.69 44.6172L19.2934 45.7183L21.0176 46.1561ZM154.578 68.2261C153.696 68.2261 152.98 68.942 152.98 69.8241V71.8471C152.98 72.7292 153.696 73.4452 154.578 73.4452C155.46 73.4452 156.176 72.7292 156.176 71.8471V69.8241C156.176 68.942 155.46 68.2261 154.578 68.2261ZM154.578 77.9211C153.696 77.9211 152.98 78.637 152.98 79.5191V81.5485C152.98 82.4306 153.696 83.1465 154.578 83.1465C155.46 83.1465 156.176 82.4306 156.176 81.5485V79.5191C156.176 78.637 155.46 77.9211 154.578 77.9211ZM158.413 74.0891H160.441C161.323 74.0891 162.039 74.8034 162.039 75.6871C162.039 76.5692 161.323 77.2851 160.441 77.2851H158.413C157.531 77.2851 156.815 76.5692 156.815 75.6871C156.815 74.805 157.531 74.0891 158.413 74.0891ZM150.584 74.0891H148.717C147.835 74.0891 147.119 74.805 147.119 75.6871C147.119 76.5692 147.835 77.2851 148.717 77.2851H150.584C151.466 77.2851 152.182 76.5692 152.182 75.6871C152.182 74.8034 151.466 74.0891 150.584 74.0891Z" fill="#B41A83"/>
<defs>
<clipPath id="clip0">
<rect width="82.6798" height="60.4221" fill="white" transform="translate(37.9336 59.1506)"/>
</clipPath>
<clipPath id="clip1">
<rect width="38.0285" height="45.6291" fill="white" transform="translate(0 98.1208)"/>
</clipPath>
</defs>
</svg>
