<svg width="21px" height="11px" viewBox="0 0 18 12" fill="none" xmlns="http://www.w3.org/2000/svg">
<path d="M0.88875 6.02261C0.88875 6.45048 1.26768 6.79744 1.73229 6.79744L15.1203 6.79744L11.4614 10.3235C11.1657 10.6505 11.2128 11.1393 11.5651 11.4153C11.9187 11.6913 12.4521 11.6537 12.7562 11.3322L17.5882 6.48374L17.5882 6.44605L17.6751 6.36957C17.6799 6.35959 17.6871 6.3474 17.6944 6.3352C17.7004 6.32301 17.7077 6.3086 17.7173 6.29308C17.7221 6.2831 17.727 6.27313 17.7342 6.26093C17.7354 6.25761 17.7366 6.25318 17.739 6.24985C17.739 6.24874 17.7402 6.24763 17.7402 6.24652C17.7426 6.2299 17.7463 6.21549 17.7511 6.20219C17.7547 6.18112 17.7595 6.16228 17.7644 6.14787C17.7668 6.13568 17.7692 6.12459 17.7704 6.11573L17.7728 6.05808C17.7789 6.02372 17.7789 5.98825 17.7728 5.95389L17.768 5.89625C17.7656 5.88627 17.7632 5.87519 17.7607 5.86299C17.7559 5.84748 17.7511 5.82974 17.7475 5.80868C17.7439 5.79538 17.7402 5.78097 17.7366 5.76434C17.7366 5.76323 17.7366 5.76323 17.7354 5.76212C17.7342 5.75769 17.7318 5.75325 17.7306 5.74993C17.7221 5.73441 17.7149 5.72 17.7101 5.70781C17.7052 5.70005 17.7016 5.69229 17.698 5.68453C17.6871 5.6679 17.6775 5.65238 17.6714 5.63908C17.6702 5.63797 17.6702 5.63687 17.669 5.63576C17.6401 5.60361 17.6208 5.57257 17.6099 5.5493L17.5761 5.51604L12.7526 0.675346C12.4521 0.348347 11.9175 0.306224 11.5615 0.582234C11.2055 0.858244 11.1597 1.34819 11.4601 1.67519L15.1119 5.24779L1.73229 5.24779C1.26768 5.24779 0.88875 5.59474 0.88875 6.02261Z" fill="white"/>
</svg>
