<svg viewBox="0 0 11 18" fill="none" xmlns="http://www.w3.org/2000/svg">
<path d="M10.5478 17.5715C10.8382 17.2956 11 16.93 11 16.5396C11 16.1493 10.8382 15.7836 10.5478 15.5077L3.63915 9L10.5478 2.49003C10.8382 2.21411 11 1.84845 11 1.45813C11 1.0678 10.8382 0.702144 10.5478 0.426221C10.2551 0.152542 9.86719 -4.95165e-08 9.4531 -6.7617e-08C9.03901 -8.57176e-08 8.6511 0.152542 8.35837 0.426221L0.450157 7.88061C0.159816 8.15429 0.000366792 8.52218 0.000366775 8.90803C0.000366774 8.93719 0.000367726 8.96635 0.00274714 8.99776C-0.0234312 9.41501 0.138398 9.82104 0.450157 10.1149L8.35837 17.5715C8.65109 17.8475 9.03901 18 9.4531 18C9.86719 17.9978 10.2551 17.8475 10.5478 17.5715Z" fill="white"/>
</svg>
