<svg width="1em" height="1em" viewBox="0 0 14 23" fill="none" xmlns="http://www.w3.org/2000/svg">
<path d="M1.32166 12.6833L11.2394 22.0997C11.5121 22.3586 11.8741 22.5012 12.2573 22.5012C12.6405 22.5012 13.0026 22.3586 13.2753 22.0997C13.5481 21.8406 13.7004 21.4945 13.7004 21.1261C13.7004 20.7576 13.5481 20.4115 13.2753 20.1524L4.26959 11.6019L13.2753 3.04862C13.5481 2.78955 13.7004 2.44341 13.7004 2.07498C13.7004 1.70674 13.5483 1.36077 13.2757 1.10174C13.0055 0.842206 12.6401 0.699805 12.2573 0.699805C11.8741 0.699805 11.5121 0.842419 11.2394 1.10134L1.32166 10.5178C1.02188 10.8024 0.869487 11.194 0.905088 11.5991C0.869502 12.0069 1.02177 12.3985 1.32166 12.6833Z" fill="currentColor" stroke="currentColor" stroke-width="0.2"/>
</svg>
