<svg viewBox="0 0 23 18" fill="none" xmlns="http://www.w3.org/2000/svg">
<path d="M21.3235 2.40718H15.235L14.0054 0.327738C13.8849 0.124315 13.6678 0 13.4328 0H9.56643C9.33142 0 9.11363 0.124315 8.99388 0.327738L7.76421 2.40718H5.76665V1.9491C5.76665 1.57842 5.46803 1.2778 5.0998 1.2778H2.63372C2.2655 1.2778 1.96687 1.57842 1.96687 1.9491V2.40718H1.67648C0.750675 2.40718 0 3.16211 0 4.09409V16.3123C0 17.2443 0.750675 18 1.67648 18H21.3235C22.2493 18 23 17.2443 23 16.3123V4.09409C23 3.16211 22.2493 2.40718 21.3235 2.40718ZM11.4996 15.0067C8.8644 15.0067 6.72838 12.8564 6.72838 10.2036C6.72838 7.55079 8.8644 5.40053 11.4996 5.40053C14.1348 5.40053 16.2709 7.55079 16.2709 10.2036C16.2716 12.8564 14.1348 15.0067 11.4996 15.0067ZM20.2772 5.88573H18.1883C17.8201 5.88573 17.5215 5.58512 17.5215 5.21443C17.5215 4.84375 17.8201 4.54313 18.1883 4.54313H20.2772C20.6454 4.54313 20.9441 4.84375 20.9441 5.21443C20.9441 5.58512 20.6462 5.88573 20.2772 5.88573Z" fill="currentColor"/>
<path d="M11.4994 13.4139C13.2611 13.4139 14.6892 11.9762 14.6892 10.2028C14.6892 8.42935 13.2611 6.9917 11.4994 6.9917C9.7377 6.9917 8.30957 8.42935 8.30957 10.2028C8.30957 11.9762 9.7377 13.4139 11.4994 13.4139Z" fill="currentColor"/>
</svg>
