<svg viewBox="0 0 82 82" fill="none" xmlns="http://www.w3.org/2000/svg">
<g clip-path="url(#clip55)">
<path d="M35.633 55.0791C32.1732 55.0791 29.3572 57.9179 29.3572 61.4058C29.3572 64.8936 32.1732 67.7324 35.633 67.7324C39.0928 67.7324 41.9088 64.8936 41.9088 61.4058C41.9088 57.9179 39.0928 55.0791 35.633 55.0791ZM35.633 64.0109C34.208 64.0109 33.0488 62.8423 33.0488 61.4058C33.0488 59.9692 34.208 58.8007 35.633 58.8007C37.058 58.8007 38.2172 59.9692 38.2172 61.4058C38.2172 62.8423 37.058 64.0109 35.633 64.0109Z" fill="#B41A83"/>
<path d="M40.063 8.33618H31.203C30.1856 8.33618 29.3572 9.1713 29.3572 10.197C29.3572 11.2226 30.1856 12.0577 31.203 12.0577H40.063C41.0804 12.0577 41.9088 11.2226 41.9088 10.197C41.9088 9.1713 41.0804 8.33618 40.063 8.33618Z" fill="#B41A83"/>
<path d="M72.8452 25.009C72.8452 21.5212 70.0292 18.6824 66.5693 18.6824H32.3107C28.8509 18.6824 26.0349 21.5212 26.0349 25.009V42.5748C26.0349 46.0627 28.8509 48.9015 32.3107 48.9015H66.5693C70.0292 48.9015 72.8452 46.0627 72.8452 42.5748V25.009ZM69.1535 42.5748C69.1535 44.0114 67.9943 45.1799 66.5693 45.1799H32.3107C30.8858 45.1799 29.7266 44.0114 29.7266 42.5748V25.009C29.7266 23.5725 30.8858 22.4039 32.3107 22.4039H66.5693C67.9943 22.4039 69.1535 23.5725 69.1535 25.009V42.5748Z" fill="#73308B"/>
<path d="M52.9836 46.9662V69.1467C52.9836 70.5832 51.8244 71.7518 50.3994 71.7518H20.8662C19.4412 71.7518 18.282 70.5832 18.282 69.1467V6.32666C18.282 4.89014 19.4412 3.72157 20.8662 3.72157H50.3994C51.8244 3.72157 52.9836 4.89014 52.9836 6.32666V19.8732H56.6752V6.32666C56.6752 2.83881 53.8592 0 50.3994 0H20.8662C17.4063 0 14.5903 2.83881 14.5903 6.32666V69.1467C14.5903 72.6346 17.4063 75.4734 20.8662 75.4734H50.3994C53.8592 75.4734 56.6752 72.6346 56.6752 69.1467V46.9662H52.9836Z" fill="#73308B"/>
<path d="M8.41288 73.5269H0.782959V77.1248H8.41288V73.5269Z" fill="#B41A83"/>
<path d="M4.84424 73.5248L4.84424 81.2166H8.41334V73.5248H4.84424Z" fill="#B41A83"/>
<path d="M4.96749 77.1226H12.5974V73.5245H4.96749V77.1226Z" fill="#B41A83"/>
<path d="M8.53613 77.1231L8.53613 69.4314H4.96704L4.96704 77.1231H8.53613Z" fill="#B41A83"/>
<path d="M77.8164 11.8979H70.1865V15.496H77.8164V11.8979Z" fill="#B41A83"/>
<path d="M74.2476 11.8957V19.5874H77.8167V11.8957H74.2476Z" fill="#B41A83"/>
<path d="M74.3706 15.4934L82.0005 15.4934V11.8954H74.3706V15.4934Z" fill="#B41A83"/>
<path d="M77.9392 15.494V7.80225L74.3701 7.80225V15.494H77.9392Z" fill="#B41A83"/>
<path d="M41.6868 30.8887H35.4849V37.1409H41.6868V30.8887Z" fill="#B41A83"/>
<path d="M52.7618 30.8887H46.5598V37.1409H52.7618V30.8887Z" fill="#B41A83"/>
<path d="M63.837 30.8887H57.635V37.1409H63.837V30.8887Z" fill="#B41A83"/>
</g>
<defs>
<clipPath id="clip55">
<rect width="81.2165" height="81.2165" fill="white" transform="translate(0.783691)"/>
</clipPath>
</defs>
</svg>
