<svg viewBox="0 0 26 17" fill="none" xmlns="http://www.w3.org/2000/svg">
<g clip-path="url(#clip0222)">
<path d="M-3.71547e-07 8.5C-1.66662e-07 3.81278 3.64457 -9.77187e-07 8.125 -7.81341e-07L19.5 -2.84124e-07C20.0992 -2.57931e-07 20.5832 0.507875 20.5832 1.13316C20.5832 1.75897 20.0987 2.26684 19.5 2.26684L8.125 2.26684C4.84047 2.26684 2.16684 5.06281 2.16684 8.5C2.16684 11.9372 4.84047 14.7332 8.125 14.7332L20.0418 14.7332C22.1325 14.7332 23.8332 12.954 23.8332 10.7668C23.8332 8.57916 22.1325 6.8 20.0418 6.8L9.20816 6.8C8.31238 6.8 7.58316 7.56287 7.58316 8.5C7.58316 9.43713 8.31238 10.2 9.20816 10.2L19.5 10.2C20.0992 10.2 20.5832 10.7079 20.5832 11.3332C20.5832 11.959 20.0987 12.4668 19.5 12.4668L9.20816 12.4668C7.1175 12.4668 5.41684 10.6872 5.41684 8.5C5.41684 6.31284 7.1175 4.53316 9.20816 4.53316L20.0418 4.53316C23.3264 4.53316 26 7.32913 26 10.7668C26 14.204 23.3264 17 20.0418 17L8.125 17C3.64457 17 -5.76432e-07 13.1872 -3.71547e-07 8.5Z" fill="currentColor"/>
</g>
<defs>
<clipPath id="clip0222">
<rect width="17" height="26" fill="white" transform="translate(26) rotate(90)"/>
</clipPath>
</defs>
</svg>
