<svg viewBox="0 0 50 50" fill="none" xmlns="http://www.w3.org/2000/svg">
<path d="M31.4149 22.1999C31.1366 22.1825 31.0392 22.1686 30.9417 22.1686C27.4352 22.1686 23.9286 22.1686 20.4186 22.1721C19.0862 22.1721 18.0218 22.6974 17.3225 23.8419C15.9102 26.1552 17.5104 29.0634 20.2481 29.1087C23.0381 29.1539 25.8315 29.1226 28.6249 29.1226C28.8093 29.1226 28.9902 29.1226 29.1746 29.1226C30.0442 29.1295 30.573 29.5922 30.566 30.3366C30.5591 31.0672 30.0512 31.5125 29.2024 31.5159C27.4735 31.5229 25.7445 31.5194 24.0156 31.5229C22.7841 31.5229 21.5561 31.5264 20.3247 31.5159C17.0164 31.4916 14.3969 28.8895 14.4004 25.6438C14.4039 22.3982 17.0234 19.7926 20.3351 19.7787C23.7756 19.7613 27.216 19.7752 30.6565 19.7752C30.8548 19.7752 31.0496 19.7752 31.3418 19.7752C31.2131 19.6083 31.147 19.5004 31.0635 19.4169C30.6913 19.0377 30.3051 18.6725 29.9364 18.2898C29.4007 17.7367 29.3763 16.9888 29.8599 16.5087C30.3504 16.0252 31.0705 16.0565 31.6375 16.5992C31.9367 16.8844 32.2219 17.1871 32.5176 17.4827C33.3525 18.3176 34.1909 19.1491 35.0223 19.984C35.6798 20.6414 35.6902 21.285 35.0466 21.9355C33.923 23.0696 32.7959 24.1967 31.6618 25.3203C31.0774 25.8978 30.3573 25.9395 29.8529 25.4351C29.3624 24.9411 29.4076 24.2037 29.9816 23.6192C30.4165 23.1705 30.8687 22.7356 31.4149 22.1999Z" fill="white"/>
<path d="M24.8714 49.0209C11.3948 49.0209 0.42981 38.0559 0.42981 24.5759C0.42981 11.0958 11.3948 0.134323 24.8714 0.134323C38.3479 0.134323 49.3129 11.0993 49.3129 24.5759C49.3129 38.0525 38.3514 49.0209 24.8714 49.0209ZM24.8714 2.47899C12.6888 2.47899 2.77447 12.3899 2.77447 24.5759C2.77447 36.7619 12.6854 46.6727 24.8714 46.6727C37.0573 46.6727 46.9682 36.7619 46.9682 24.5759C46.9682 12.3899 37.0573 2.47899 24.8714 2.47899Z" fill="white"/>
</svg>
