<svg width="18" height="11" viewBox="0 0 18 11" fill="none" xmlns="http://www.w3.org/2000/svg">
<path d="M0.88875 5.52212C0.88875 5.94235 1.26768 6.2831 1.73229 6.2831L15.1203 6.2831L11.4614 9.74618C11.1657 10.0673 11.2128 10.5475 11.5651 10.8185C11.9187 11.0896 12.4521 11.0526 12.7562 10.7369L17.5882 5.975L17.5882 5.93799L17.6751 5.86287C17.6799 5.85307 17.6871 5.8411 17.6944 5.82912C17.7004 5.81715 17.7077 5.80299 17.7173 5.78775C17.7221 5.77795 17.727 5.76816 17.7342 5.75618C17.7354 5.75291 17.7366 5.74856 17.739 5.74529C17.739 5.7442 17.7402 5.74312 17.7402 5.74203C17.7426 5.7257 17.7463 5.71154 17.7511 5.69848C17.7547 5.67779 17.7595 5.65929 17.7644 5.64513C17.7668 5.63316 17.7692 5.62227 17.7704 5.61356L17.7728 5.55695C17.7789 5.5232 17.7789 5.48837 17.7728 5.45462L17.768 5.39801C17.7656 5.38821 17.7632 5.37732 17.7607 5.36535C17.7559 5.3501 17.7511 5.33268 17.7475 5.312C17.7439 5.29894 17.7402 5.28478 17.7366 5.26845C17.7366 5.26736 17.7366 5.26736 17.7354 5.26627C17.7342 5.26192 17.7318 5.25757 17.7306 5.2543C17.7221 5.23906 17.7149 5.22491 17.7101 5.21293C17.7052 5.20531 17.7016 5.19769 17.698 5.19007C17.6871 5.17374 17.6775 5.1585 17.6714 5.14543C17.6702 5.14434 17.6702 5.14325 17.669 5.14217C17.6401 5.11059 17.6208 5.08011 17.6099 5.05725L17.5761 5.02459L12.7526 0.270335C12.4521 -0.0508256 11.9175 -0.092196 11.5615 0.178885C11.2055 0.449966 11.1597 0.931161 11.4601 1.25232L15.1119 4.76113L1.73229 4.76113C1.26768 4.76113 0.88875 5.10189 0.88875 5.52212Z" fill="#B41A83"/>
</svg>
