<svg width="1em" height="1em" viewBox="0 0 24 24" fill="none" xmlns="http://www.w3.org/2000/svg">
<path d="M12 24C5.37188 24 0 18.6281 0 12C0 5.37188 5.37188 0 12 0C18.6281 0 24 5.37188 24 12C23.9859 18.6234 18.6234 23.9859 12 24ZM13.5984 9.6V7.59844C13.5984 7.37813 13.4203 7.2 13.2 7.2H8.00156C7.78125 7.2 7.60312 7.37813 7.60312 7.59844V13.2C7.60312 13.4203 7.78125 13.5984 8.00156 13.5984H13.2C13.4203 13.5984 13.5984 13.4203 13.5984 13.2V9.6ZM15.9984 10.4016C15.9984 10.1812 15.8203 10.0031 15.6 10.0031H14.7984C14.5781 10.0031 14.4 10.1812 14.4 10.4016V14.0016C14.4 14.2219 14.2219 14.4 14.0016 14.4H10.4016C10.1812 14.4 10.0031 14.5781 10.0031 14.7984V15.9984C10.0031 16.2188 10.1812 16.3969 10.4016 16.3969H15.6C15.8203 16.3969 15.9984 16.2188 15.9984 15.9984V10.4016Z" fill="#73308B"/>
</svg>
