<svg width="320" height="200" viewBox="0 0 298 183" fill="none" xmlns="http://www.w3.org/2000/svg">
<g id="icon animacion paso1" clip-path="url(#clip0)">
<path id="motor" d="M109.987 56.6271L111.608 71.0643C111.758 72.3925 110.892 73.5768 109.677 73.7093C106.031 74.1041 102.712 71.1941 102.264 67.2069L101.722 62.3935C101.274 58.4063 103.868 54.8534 107.514 54.4586C108.729 54.3261 109.838 55.2961 109.987 56.6271Z" fill="#E8EDFC"/>
<g id="clouds">
<path id="Vector" d="M297.874 114.72C296.354 109.21 291.422 105.169 285.19 105.169C281.713 105.169 280.019 104.101 279.505 101.312C278.392 95.4946 273.643 91.2367 267.736 91.2367C265.886 91.2367 264.101 91.6597 262.432 92.4859C260.337 93.5348 257.819 92.8214 256.569 90.8363C253.18 85.5097 247.408 82.3206 241.1 82.3206C231.025 82.3206 222.8 90.5233 222.8 100.621C222.8 102.916 221.105 105.011 218.832 105.302C213.523 105.987 209.282 109.791 207.863 114.72H297.874Z" fill="#F4F2F4"/>
<path id="Vector_2" d="M189.047 77.9272C186.34 68.5345 177.545 61.6458 166.444 61.6458C160.249 61.6458 157.232 59.8214 156.318 55.0729C154.333 45.1557 145.874 37.8976 135.35 37.8976C132.054 37.8976 128.876 38.6195 125.898 40.0265C122.165 41.8115 117.679 40.5961 115.454 37.2152C109.417 28.1327 99.1328 22.699 87.8932 22.699C69.9424 22.699 55.288 36.6823 55.288 53.8942C55.288 57.8081 52.2709 61.3807 48.2188 61.8742C38.7613 63.0416 31.2043 69.5271 28.6777 77.9272H189.047Z" fill="#F0F5FA"/>
<path id="Vector_3" d="M124.659 127.09C123.818 124.051 121.097 121.82 117.66 121.82C115.74 121.82 114.806 121.231 114.524 119.691C113.91 116.48 111.29 114.131 108.03 114.131C107.01 114.131 106.026 114.365 105.104 114.819C103.947 115.397 102.557 115.002 101.869 113.908C99.9997 110.967 96.8134 109.21 93.3338 109.21C87.7732 109.21 83.2333 113.736 83.2333 119.311C83.2333 120.577 82.2972 121.733 81.0424 121.894C78.1126 122.271 75.7722 124.372 74.9883 127.09H124.659Z" fill="#F4F2F4"/>
</g>
<path id="Tarjeta3" d="M205.777 174.59L157.314 180.032C154.968 180.294 152.85 178.608 152.588 176.259L149.009 144.39C148.747 142.044 150.433 139.926 152.782 139.664L201.243 134.222C203.589 133.959 205.707 135.646 205.969 137.995L209.547 169.864C209.812 172.21 208.123 174.325 205.777 174.59Z" fill="#E8EDFC"/>
<g id="Globo2">
<path id="Vector_4" d="M118.681 61.4799C118.393 55.9362 119.589 50.4573 122.124 45.7145C127.055 36.0708 136.877 27.8681 149.478 23.018C149.67 22.9475 149.842 22.8827 150.014 22.8376C155.592 20.7453 161.389 19.372 167.291 18.7461C183.823 16.9527 199.214 20.8835 209.878 28.542C216.978 33.1072 222.119 40.6022 224.104 49.2815C224.203 49.7552 224.279 50.2346 224.332 50.7196C224.318 50.6209 224.29 50.5278 224.256 50.4348C224.293 50.5419 224.321 50.6519 224.338 50.7647L224.352 50.8859C224.372 50.9705 224.383 51.0608 224.383 51.151C224.414 51.2666 224.434 51.3879 224.445 51.5091C224.473 51.7178 224.49 51.9264 224.493 52.1379C224.71 54.5658 224.625 57.0077 224.239 59.3989C223.703 62.5767 222.7 65.6306 221.267 68.4391C219.364 72.1556 216.936 75.5167 214.074 78.4014C213.657 78.8356 213.234 79.2473 212.811 79.659C202.369 88.9784 189.519 94.5841 175.936 95.7402C170.04 96.3944 164.076 96.2985 158.169 95.4526C157.988 95.447 157.808 95.4188 157.605 95.3934C144.231 93.3631 132.827 87.4641 125.877 79.1091C122.349 75.0233 119.966 69.9336 119.019 64.4632C118.92 63.9613 118.841 63.4847 118.785 62.98C118.726 62.4724 118.695 61.9902 118.681 61.4799Z" fill="#CAD9FC"/>
<path id="Vector_5" d="M129.679 60.2838C129.341 54.8275 130.345 49.4051 132.587 44.5776C136.901 35.0016 145.614 26.9201 156.862 22.2168C157.02 22.1491 157.181 22.0927 157.341 22.0419C162.301 20.0201 167.496 18.7118 172.794 18.1478C187.603 16.5405 201.457 20.6377 211.109 28.4062C217.71 33.3408 222.368 40.816 224.111 49.2782C224.204 49.7547 224.275 50.2087 224.334 50.7163C224.32 50.6176 224.294 50.5245 224.263 50.4315C224.297 50.5386 224.323 50.6514 224.34 50.7642L224.354 50.8855C224.373 50.9701 224.385 51.0603 224.385 51.1505C224.413 51.269 224.435 51.3874 224.444 51.5087C224.472 51.7173 224.489 51.926 224.495 52.1375C224.717 54.5568 224.669 56.9903 224.351 59.3871C223.917 62.5199 223.054 65.5512 221.788 68.3822C220.158 72.0169 218.02 75.3471 215.452 78.2515C215.079 78.6801 214.707 79.0861 214.332 79.4922C205.331 88.555 193.77 94.0564 181.439 95.142C176.144 95.7285 170.786 95.5649 165.496 94.657C165.327 94.6429 165.158 94.6231 164.989 94.5893C152.968 92.4124 142.67 86.3922 136.337 77.9723C133.077 73.7426 130.895 68.6642 130.015 63.2671C129.919 62.7652 129.846 62.2859 129.789 61.7811C129.733 61.2764 129.696 60.7942 129.679 60.2838Z" fill="#E8EDFC"/>
<path id="Vector_6" d="M128.129 66.8344L106.935 69.1353L105.855 59.5114L127.049 57.2104L128.129 66.8344Z" fill="#CAD9FC"/>
<path id="Vector_7" d="M118.679 61.4796C118.377 46.0723 140.104 31.4405 168.369 28.3726C181.193 26.7004 194.269 28.1949 206.625 32.7432C204.606 36.2087 203.278 40.1085 202.72 44.2C202.198 47.7952 202.144 51.4666 202.562 55.1041C202.878 57.9352 203.467 60.7296 204.321 63.4366C205.576 67.4519 207.522 71.1853 210.057 74.4309C199.271 81.0207 187.27 85.0051 174.852 86.1189C146.586 89.1868 122.136 79.5657 119.012 64.4658C118.913 63.9639 118.834 63.4873 118.778 62.9826C118.724 62.4722 118.693 61.99 118.679 61.4796Z" fill="#CAD9FC"/>
<path id="Vector_8" d="M127.48 60.5235C127.04 45.1304 146.513 30.7438 172.016 27.9748C183.67 26.4521 195.558 28.0904 206.628 32.743C204.821 36.2509 203.665 40.1224 203.225 44.1434C202.791 47.7471 202.785 51.4044 203.202 55.0334C203.515 57.8588 204.079 60.6533 204.883 63.3743C206.036 67.3559 207.832 71.0949 210.184 74.4166C200.631 80.8401 189.783 84.7116 178.501 85.7211C152.996 88.4901 130.802 78.6237 127.816 63.5069C127.72 63.005 127.646 62.5256 127.59 62.0208C127.531 61.5161 127.497 61.0339 127.48 60.5235Z" fill="#E8EDFC"/>
<path id="Vector_9" d="M122.644 57.6869C130.311 52.5437 148.6 47.5639 170.262 45.2122C181.022 43.9743 191.875 43.636 202.723 44.1971C202.201 47.7923 202.148 51.4637 202.565 55.1012C202.881 57.9323 203.47 60.7267 204.325 63.4337C201.367 64.2655 198.158 65.0776 194.743 65.8136L150.94 70.5677C138.982 70.6241 129.248 69.4652 123.727 67.3109C120.724 66.1519 118.975 64.6856 118.784 62.9769C118.589 61.2709 119.971 59.4634 122.644 57.6869Z" fill="#CAD9FC"/>
<path id="Vector_10" d="M130.994 56.7819C137.815 51.7317 154.179 46.9606 173.596 44.8543C183.251 43.7376 192.996 43.5205 202.724 44.2001C202.295 47.8038 202.29 51.461 202.707 55.0873C203.02 57.9127 203.584 60.7071 204.382 63.4282C201.734 64.2262 198.866 65.0016 195.807 65.6981L156.542 69.9588C145.807 69.8827 137.057 68.6166 132.074 66.4059C129.364 65.2131 127.78 63.7299 127.588 62.0211C127.396 60.3151 128.614 58.5246 130.994 56.7819Z" fill="#E8EDFC"/>
<path id="Vector_11" d="M157.604 95.3931C157.807 95.4213 157.987 95.4495 158.167 95.4523L157.604 95.3931Z" fill="white"/>
<path id="Vector_12" d="M190.033 62.5511C192.464 62.286 194.678 64.2288 194.976 66.8851C195.275 69.5441 193.547 71.9099 191.113 72.175C188.683 72.44 186.469 70.4972 186.17 67.841C185.871 65.1819 187.6 62.8133 190.033 62.5511Z" fill="#E8EDFC"/>
<path id="Vector_13" d="M154.812 66.3719C157.243 66.1068 159.456 68.0496 159.755 70.7059C160.054 73.3649 158.326 75.7307 155.892 75.9958C153.461 76.2608 151.248 74.318 150.949 71.6618C150.653 69.0055 152.381 66.6369 154.812 66.3719Z" fill="#E8EDFC"/>
<path id="Vector_14" d="M209.877 28.542C216.978 33.1072 222.118 40.6022 224.103 49.2815C224.207 49.806 224.289 50.3333 224.351 50.886C223.195 43.1682 216.535 36.8293 206.629 32.7406C207.523 31.1813 208.617 29.7658 209.877 28.542Z" fill="#E8EDFC"/>
<path id="Vector_15" d="M206.628 32.7434C216.486 36.8124 223.146 43.1287 224.339 50.79L224.35 50.8859C224.37 50.9705 224.381 51.0607 224.381 51.1509C223.479 47.4739 215.116 45.0207 202.723 44.1974C203.281 40.1087 204.609 36.2089 206.628 32.7434Z" fill="#CAD9FC"/>
<path id="Vector_16" d="M202.723 44.2C215.113 45.0233 223.476 47.4765 224.381 51.1535C224.412 51.2691 224.432 51.3904 224.443 51.5116C224.497 52.4788 224.181 53.4206 223.578 54.1143L223.558 54.1397L223.561 54.1651C221.178 57.3458 214.171 60.6393 204.324 63.4365C203.47 60.7267 202.881 57.9351 202.565 55.104C202.147 51.4665 202.201 47.7952 202.723 44.2Z" fill="#E8EDFC"/>
<path id="Vector_17" d="M223.559 54.1624L223.556 54.1371L223.576 54.1117C224.179 53.418 224.495 52.4762 224.441 51.509C224.47 51.7177 224.487 51.9264 224.489 52.1378C225.09 60.256 219.521 68.2134 210.058 74.4282C207.523 71.1827 205.577 67.4521 204.322 63.4339C214.172 60.6367 221.176 57.3432 223.559 54.1624Z" fill="#CAD9FC"/>
<path id="Vector_18" d="M224.491 52.1377C224.708 54.5655 224.624 57.0075 224.238 59.3986C223.702 62.5765 222.698 65.6304 221.266 68.4389C219.362 72.1553 216.934 75.5165 214.072 78.4012C212.592 77.262 211.247 75.9254 210.062 74.4281C219.523 68.2133 225.089 60.2558 224.491 52.1377Z" fill="#E8EDFC"/>
<path id="Vector_19" d="M167.023 16.3406C176.876 15.2324 186.878 16.225 196.47 19.2619C203.506 21.4134 210.059 25.1975 215.682 30.3493C218.544 32.9942 220.994 36.1298 222.931 39.6292C224.846 43.2272 226.106 47.1806 226.645 51.2692L222.243 51.7458C221.781 48.3282 220.721 45.0234 219.125 42.0119C217.438 38.9778 215.309 36.2595 212.82 33.9671C207.682 29.2749 201.695 25.832 195.275 23.8835C186.246 21.0299 176.836 20.1022 167.565 21.1483L167.023 16.3406Z" fill="white"/>
<path id="Vector_20" d="M187.195 19.3885C187.232 19.0755 187.212 18.7568 187.133 18.4523C187.063 18.1421 186.936 17.8489 186.758 17.5923C186.169 16.8197 185.23 16.4785 184.35 16.7097C184.065 16.783 183.797 16.9155 183.563 17.1016C183.118 17.5105 182.839 18.0998 182.788 18.7399C182.782 18.9007 182.785 19.0642 182.796 19.2249C182.811 19.3772 182.844 19.5266 182.895 19.6676C182.932 19.8255 182.988 19.975 183.062 20.116L183.293 20.5136C183.659 21.0099 184.181 21.3426 184.753 21.4441C185.326 21.5174 185.895 21.3539 186.352 20.9845C186.803 20.5869 187.102 20.0201 187.195 19.3885Z" fill="#428DFF"/>
<path id="Vector_21" d="M120.738 52.6172L119.219 43.2217C118.875 40.9236 117.907 35.1487 116.34 31.1671C115.558 29.182 115.699 26.929 116.717 25.1413C117.617 23.565 119.114 22.5048 120.831 22.2284C127.937 21.0892 139.355 21.0921 142.758 21.7011L149.717 22.9418L143.542 26.3791C135.069 31.0938 130.168 35.7211 127.548 38.7721C124.931 41.8175 124.088 43.8562 124.083 43.8759L120.738 52.6172ZM134.093 26.334C130.013 26.3707 125.225 26.6216 121.627 27.1997C121.415 27.2335 121.235 27.3802 121.088 27.6339C120.879 28.0005 120.753 28.6378 121.02 29.3202C121.858 31.4463 122.535 33.9728 123.053 36.302C125.298 33.5442 128.792 30.0392 134.093 26.334Z" fill="#B41A83"/>
</g>
<g id="strings">
<path id="Vector_22" d="M192.438 135.944L206.912 85.5549L200.984 88.4424C200.984 88.4424 190.28 126.521 187.43 136.556L192.438 135.944Z" fill="#B41A83"/>
<path id="Vector_23" d="M184.046 136.971L193.027 72.1638L188.146 71.1599C188.146 71.1599 180.842 124.916 179.252 137.555L184.046 136.971Z" fill="#B41A83"/>
<path id="Vector_24" d="M165.552 139.232C161.06 127.043 148.986 93.8311 148.986 93.8311L142.816 92.0603L160.795 139.813L165.552 139.232Z" fill="#B41A83"/>
</g>
<path id="Tarjeta2" d="M154.746 149.629L168.354 148.199L170.117 161.952L156.226 163.548L154.746 149.629Z" fill="#CAD9FC"/>
<g id="lines">
<g id="Group 138">
<path id="Vector_25" d="M110.78 140.518H44.8365C44.0583 140.518 43.4238 139.887 43.4238 139.106C43.4238 138.327 44.0555 137.693 44.8365 137.693H110.78C111.558 137.693 112.193 138.325 112.193 139.106C112.193 139.887 111.558 140.518 110.78 140.518Z" fill="#CEE0FA"/>
<path id="Vector_26" d="M122.26 149.183H93.315C92.5368 149.183 91.9023 148.552 91.9023 147.771C91.9023 146.992 92.534 146.358 93.315 146.358H122.26C123.038 146.358 123.673 146.99 123.673 147.771C123.67 148.549 123.038 149.183 122.26 149.183Z" fill="#CEE0FA"/>
</g>
<g id="Group 139">
<path id="Vector_27" d="M332.78 121.518H266.837C266.058 121.518 265.424 120.887 265.424 120.106C265.424 119.327 266.055 118.693 266.837 118.693H332.78C333.558 118.693 334.193 119.325 334.193 120.106C334.193 120.887 333.558 121.518 332.78 121.518Z" fill="#CEE0FA"/>
</g>
<g id="Group">
<path id="Vector_28" d="M108.777 11.88H76.471C75.5884 11.88 74.875 11.1638 74.875 10.284C74.875 9.40139 75.5912 8.68799 76.471 8.68799H108.777C109.66 8.68799 110.373 9.40421 110.373 10.284C110.373 11.1638 109.66 11.88 108.777 11.88Z" fill="#CEE0FA"/>
<path id="Vector_29" d="M115.454 3.19492H103.168C102.286 3.19492 101.572 2.4787 101.572 1.59893C101.572 0.716335 102.288 0.00292969 103.168 0.00292969H115.454C116.337 0.00292969 117.05 0.719154 117.05 1.59893C117.053 2.4787 116.337 3.19492 115.454 3.19492Z" fill="#CEE0FA"/>
</g>
<g id="Group_2">
<path id="Vector_30" d="M300.777 52.88H268.471C267.588 52.88 266.875 52.1638 266.875 51.284C266.875 50.4014 267.591 49.688 268.471 49.688H300.777C301.66 49.688 302.373 50.4042 302.373 51.284C302.373 52.1638 301.66 52.88 300.777 52.88Z" fill="#CEE0FA"/>
<path id="Vector_31" d="M307.454 44.1949H295.168C294.286 44.1949 293.572 43.4787 293.572 42.5989C293.572 41.7163 294.288 41.0029 295.168 41.0029H307.454C308.337 41.0029 309.05 41.7192 309.05 42.5989C309.053 43.4787 308.337 44.1949 307.454 44.1949Z" fill="#CEE0FA"/>
</g>
</g>
<g id="Globo1">
<path id="Vector_32" d="M198.484 25.1666C187.132 19.7865 171.333 20.7198 171.175 20.7283L170.873 15.9742C171.57 15.929 188.071 14.959 200.526 20.8608L198.484 25.1666Z" fill="#B41A83"/>
<g id="wings">
<g id="Group_3">
<path id="Vector_33" d="M106.233 52.7721C105.937 53.5758 104.919 53.7957 104.412 53.1049C102.66 50.7221 100.049 43.8813 102.359 37.9936C105.455 30.1011 111.01 39.8491 106.233 52.7721Z" fill="#E8EDFC"/>
<path id="Vector_34" d="M105.211 55.4593C104.289 55.4593 103.41 55.0194 102.848 54.2553C100.945 51.6639 97.88 44.1069 100.553 37.2886C102.442 32.4696 105.293 33.1238 106.119 33.4396C109.977 34.9087 111.624 43.777 108.051 53.446C107.656 54.5147 106.723 55.276 105.617 55.4311C105.482 55.448 105.347 55.4593 105.211 55.4593ZM104.416 52.0981C104.413 52.101 104.413 52.101 104.416 52.0981C104.413 52.101 104.413 52.0981 104.416 52.0981ZM104.932 37.2633C104.741 37.5001 104.461 37.9457 104.162 38.7042C102.589 42.7167 103.697 47.4709 105.02 50.2991C107.129 43.3258 105.868 38.4307 104.932 37.2633Z" fill="#73308B"/>
</g>
<g id="Group_4">
<path id="Vector_35" d="M107.221 74.4596C107.517 73.6559 108.535 73.436 109.042 74.1268C110.794 76.5096 113.405 83.3504 111.095 89.2381C108.002 97.1306 102.447 87.3826 107.221 74.4596Z" fill="#E8EDFC"/>
<path id="Vector_36" d="M108.539 94.0116C108.011 94.0116 107.583 93.8876 107.335 93.7945C103.477 92.3254 101.83 83.4572 105.403 73.7881C105.798 72.7194 106.731 71.9581 107.839 71.803C108.902 71.6536 109.965 72.1019 110.608 72.9789C112.512 75.5702 115.577 83.1273 112.904 89.9455C111.578 93.3264 109.779 94.0116 108.539 94.0116ZM108.434 76.935C106.328 83.9055 107.585 88.8007 108.522 89.9709C108.713 89.734 108.993 89.2885 109.291 88.53C110.865 84.5174 109.76 79.7604 108.434 76.935Z" fill="#73308B"/>
</g>
</g>
<path id="Vector_37" d="M103.998 67.0482L103.457 62.2348C103.161 59.5786 104.889 57.21 107.32 56.9449L108.941 71.3822C106.51 71.6444 104.3 69.7044 103.998 67.0482ZM106.353 75.8938C106.987 76.0715 107.638 76.1702 108.287 76.1927C108.287 76.1927 111.203 76.1645 112.409 74.4698C113.148 73.4773 113.484 72.1915 113.34 70.9028L117.801 70.4178C119.143 74.0582 121.066 77.425 123.486 80.3491C123.486 80.3491 127.346 84.7874 130.496 87.0827C135.642 90.9289 141.329 93.8136 147.313 95.6182C147.313 95.6182 151.314 96.6559 153.119 97.0253C154.069 97.2198 156.268 97.5808 158.141 97.8769C161.953 114.02 166.482 133.271 167.452 137.667C167.57 138.197 167.697 138.628 167.832 138.972L170.627 138.631C171.191 137.715 171.585 136.722 171.585 136.722L163.053 98.5C165.069 98.6297 167.088 98.6749 169.104 98.6354L173.537 98.4211C174.27 98.3619 175.006 98.3055 175.742 98.2237C176.481 98.1447 177.208 98.0432 177.938 97.9417C177.938 97.9417 182.098 97.3552 182.312 97.2001C184.889 96.6869 187.435 96.0327 189.945 95.2404L194.364 93.6838C200.313 91.3885 205.899 88.1401 210.941 84.0458C210.941 84.0458 215.402 79.9515 218.033 76.9231C224.104 69.3632 227.208 60.4781 226.182 51.3448C226.089 50.5665 225.948 49.7967 225.762 49.0382C225.136 45.7616 224.022 42.6091 222.468 39.7019C220.531 36.2054 218.081 33.067 215.219 30.422C209.596 25.2675 203.04 21.4833 196.008 19.3346L193.788 18.6297C193.208 18.452 192.59 18.5423 192.082 18.875C191.575 19.2077 191.22 19.7604 191.098 20.3977C190.867 21.6694 191.589 22.9411 192.742 23.3021L194.806 23.9619C200.119 25.6284 205.155 28.2649 209.695 31.753C198.991 26.5646 184.04 24.258 167.638 26.0373C151.077 27.8335 136.891 33.3828 127.602 40.8468C133.733 33.6591 141.453 28.3044 150.059 25.2675C150.127 25.2534 150.186 25.2195 150.251 25.197C155.693 23.1695 161.347 21.8358 167.099 21.2239C169.964 21.0152 172.826 20.7614 175.702 20.8545C176.906 20.8207 177.862 19.7802 177.896 18.469C177.907 17.8232 177.673 17.1916 177.25 16.7292C176.827 16.2667 176.249 16.0101 175.654 16.0214C172.609 15.9227 169.586 16.1849 166.561 16.4105C161.003 17.0055 155.532 18.2406 150.24 20.096L145.92 21.6835L139.395 25.0503C133.955 28.0957 129.049 32.1308 124.879 36.9865C121.441 41.219 119.529 45.0623 119.529 45.0623C117.821 48.4348 116.687 52.1343 116.188 55.9749L111.727 56.4599C111.583 55.1713 110.971 53.9898 110.027 53.1805C108.157 51.6211 105.622 52.3853 105.622 52.3853C104.991 52.546 104.379 52.7829 103.801 53.0903C101.7 54.472 100.479 56.2992 100.479 56.2992C99.32 58.1659 98.8153 60.4386 99.0606 62.7057L99.602 67.5191C99.8671 69.7862 100.86 71.8954 102.408 73.4688C103.657 74.7913 105.893 75.7049 106.353 75.8938ZM112.801 66.0923L112.26 61.2817L115.948 60.8813C115.976 61.6849 116.024 62.4914 116.115 63.2979C116.205 64.1043 116.337 64.9023 116.49 65.6919L112.801 66.0923ZM168.176 30.8591C190.768 28.4059 211.384 34.4853 218.87 44.7155C207.016 40.4886 183.569 41.3656 169.527 42.8883C148.847 45.1328 130.338 49.9293 121.799 55.2023C126.866 43.6355 145.618 33.3067 168.176 30.8591ZM123.449 69.9695C131.657 72.2535 140.088 73.2912 148.505 73.0515C149.168 75.6372 151.071 77.6477 153.46 78.285C153.46 78.285 153.48 78.2907 153.508 78.2991C153.863 79.8021 154.306 81.6744 154.813 83.8202L154.196 83.7667C140.128 82.1227 128.649 77.0415 123.449 69.9695ZM154.619 68.8613C155.834 68.7288 156.942 69.6988 157.092 71.0269C157.241 72.355 156.375 73.5393 155.16 73.6718C153.945 73.8044 152.84 72.8344 152.69 71.5034C152.541 70.1753 153.403 68.9938 154.619 68.8613ZM155.597 92.7787C147.259 91.4562 139.276 88.0161 132.3 82.7346C139.51 86.0958 147.155 88.1345 154.92 88.7633L156.003 88.8395C156.316 90.1647 156.643 91.5493 156.982 92.9761L155.597 92.7787ZM194.2 88.5857L189.835 90.2268C185.075 91.8115 180.174 92.8802 175.203 93.4131C170.81 93.8953 166.377 93.9574 161.959 93.6021L160.963 89.1384C165.543 89.2765 170.116 89.0989 174.665 88.5998C179.712 88.0584 184.709 87.125 189.618 85.8082L193.977 84.5167C201.413 82.2383 208.415 78.6121 214.7 73.7875C209.063 80.4393 202.039 85.5065 194.2 88.5857ZM193.597 79.4778L189.265 80.8426C184.303 82.2553 179.238 83.2394 174.12 83.792C169.392 84.3109 164.626 84.4491 159.861 84.2207L158.361 77.5011C159.962 76.4634 161.076 74.718 161.409 72.6877C165.266 72.4593 169.087 72.1604 172.77 71.76C176.452 71.3596 180.245 70.8323 184.063 70.2289C184.917 72.3325 186.62 73.9002 188.665 74.4529C188.665 74.4529 190.907 75.1889 193.067 73.9792C195.252 72.8457 196.659 70.4827 196.735 67.8264C204.01 66.1712 214.221 63.3402 220.492 59.463C216.978 67.4627 206.929 74.8646 193.597 79.4778ZM189.838 65.0377C191.053 64.9051 192.159 65.8751 192.308 67.2033C192.457 68.5314 191.592 69.7157 190.376 69.8482C189.161 69.9808 188.053 69.0107 187.904 67.6798C187.76 66.3545 188.623 65.1702 189.838 65.0377ZM221.386 52.6334C221.369 52.6532 221.355 52.6786 221.34 52.6983L221.332 52.7068L221.326 52.7209C221.298 52.7632 221.27 52.7998 221.245 52.8449C219.014 55.5801 211.088 59.6406 195.362 63.1738C193.831 60.9433 191.29 59.8295 188.811 60.3004C186.333 60.7713 184.348 62.748 183.696 65.3901C175.979 66.6252 168.503 67.4373 160.695 67.8857C159.474 65.4465 157.1 63.9436 154.576 64.0141C152.053 64.0846 149.82 65.7144 148.818 68.2184C137.948 68.1648 128.936 67.0566 123.965 65.1166C121.247 64.0677 120.55 63.0836 120.522 62.8185C120.491 62.5563 120.953 61.4453 123.367 59.8408C131.014 54.7116 149.34 49.949 170.071 47.6988C203.474 44.0726 221.456 48.9508 221.78 51.8298C221.783 51.8918 221.727 52.1795 221.386 52.6334Z" fill="#B41A83"/>
</g>
<g id="Tarjeta1">
<path id="Vector_38" d="M166.641 168.029L158.926 168.896L159.369 172.844L167.084 171.978L166.641 168.029Z" fill="#B41A83"/>
<path id="Vector_39" d="M171.009 145.464L156.477 147.096L158.02 160.841L172.553 159.209L171.009 145.464Z" fill="#B41A83"/>
<path id="Vector_40" d="M167.226 149.942L161.156 150.623L161.801 156.365L167.871 155.684L167.226 149.942Z" fill="#F8FAFB"/>
<path id="Vector_41" d="M177.943 166.76L170.229 167.626L170.672 171.575L178.387 170.708L177.943 166.76Z" fill="#B41A83"/>
<path id="Vector_42" d="M189.244 165.491L181.529 166.358L181.973 170.306L189.687 169.44L189.244 165.491Z" fill="#B41A83"/>
<path id="Vector_43" d="M200.549 164.222L192.834 165.088L193.277 169.037L200.992 168.17L200.549 164.222Z" fill="#B41A83"/>
<path id="Vector_44" d="M198.986 150.318L191.271 151.184L191.715 155.133L199.43 154.266L198.986 150.318Z" fill="#F8FAFB"/>
<path id="Vector_45" d="M198.161 142.96L181.857 144.791L182.301 148.74L198.605 146.909L198.161 142.96Z" fill="#73308B"/>
<path id="Vector_46" d="M157.011 182.22C155.601 182.22 154.242 181.746 153.125 180.855C151.819 179.815 150.999 178.326 150.813 176.668L147.235 144.799C146.851 141.373 149.324 138.274 152.747 137.89L201.211 132.448C202.869 132.262 204.501 132.733 205.807 133.773C207.113 134.814 207.933 136.303 208.119 137.961L211.698 169.83C211.884 171.488 211.413 173.121 210.372 174.426C209.332 175.732 207.843 176.552 206.185 176.738L157.721 182.181C157.482 182.206 157.245 182.22 157.011 182.22ZM201.913 136.353C201.826 136.353 201.738 136.359 201.651 136.367L153.187 141.81C151.927 141.951 151.013 143.093 151.157 144.356L154.735 176.225C154.803 176.837 155.107 177.384 155.587 177.768C156.069 178.151 156.667 178.326 157.279 178.255L205.742 172.813C206.354 172.746 206.901 172.441 207.285 171.962C207.668 171.479 207.843 170.879 207.772 170.27L204.194 138.401C204.126 137.789 203.822 137.242 203.343 136.858C202.931 136.528 202.432 136.353 201.913 136.353Z" fill="#73308B"/>
</g>
</g>
<defs>
<clipPath id="clip0">
<rect width="297.873" height="182.22" fill="white"/>
</clipPath>
</defs>
</svg>
