<svg width="42" height="30" viewBox="0 0 52 40" fill="none" xmlns="http://www.w3.org/2000/svg">
<g filter="url(#filter0_d)">
<path d="M48.3238 31.6736C48.3238 33.9219 47.2244 35 45.8713 35H45.1337L38.3447 34.9424H31.3491C23.1671 34.9585 14.9852 34.9562 6.80556 34.9562C4.29671 34.9562 3 33.6892 3 31.2382C3 20.1047 3 11.5076 3 4.52068C3 2.77453 3.94904 1.46607 5.49006 1.12283C5.92464 1.02608 6.38272 1.01226 6.8314 1.01226C14.3086 1.00534 21.7858 1.00765 29.2607 1.00765C29.2607 1.00534 29.2607 1.00304 29.2607 1.00074C36.7567 1.00074 36.9705 0.99613 44.4665 1.00995C45.028 1.00995 45.6199 1.04681 46.1414 1.22419C47.4475 1.66649 48.1429 2.63631 48.3167 3.97012C48.3426 4.17744 48.3355 4.39168 48.3355 3.68216L48.3238 31.6736ZM46.0874 24.765C46.0874 21.6712 46.0874 17.0432 46.0874 14.0255H5.19877C5.19877 14.2673 5.19877 14.4747 5.19877 14.682C5.19877 19.6532 5.19877 26.2347 5.19877 31.2059C5.19877 32.4983 5.50415 32.7954 6.8267 32.7954C14.8113 32.7954 22.796 32.7954 30.7806 32.7954C31.0108 32.7954 31.2387 32.7954 31.4877 32.7954L44.9669 32.8737C45.5729 32.8761 46.0663 32.3969 46.0686 31.8003L46.0874 24.765ZM5.19877 9.63244C5.19877 10.8188 5.19877 9.87432 5.19877 11.0031C5.19877 11.8324 5.19877 11.8324 6.06089 11.8324C19.3122 11.8324 25.279 11.8324 38.5303 11.8324C40.8794 11.8324 43.2285 11.8232 45.5753 11.8393C46.0028 11.8416 46.172 11.7264 46.1508 11.2887C46.1179 10.6368 46.1438 12.0582 46.1438 11.4039C46.1438 10.8188 46.1438 10.2337 46.1438 9.63244C30.0359 9.63244 21.3137 9.63244 5.19877 9.63244ZM29.2466 7.45551C31.732 7.45551 34.2173 7.45551 36.7027 7.45551C42.0446 7.45551 40.1042 7.44629 45.4461 7.46933C46.031 7.47163 46.1884 7.28273 46.1532 6.74368C46.1109 6.09406 46.1438 5.43983 46.1438 4.7879C46.1414 3.46332 45.8361 3.16385 44.4853 3.16385C33.919 3.16385 30.6349 3.16385 20.0686 3.16385C15.5865 3.16385 11.1068 3.16154 6.62468 3.16385C5.59342 3.16385 5.21051 3.54164 5.19877 4.55293C5.19172 5.26245 5.19642 5.97197 5.19642 6.68379C5.19642 7.45781 5.19877 7.45781 5.99747 7.45781C13.7495 7.45551 21.4969 7.45551 29.2466 7.45551Z" fill="#CC092F"/>
<path d="M18.3136 28.5C15.8705 28.5 13.4251 28.5093 10.982 28.4885C10.6508 28.4862 10.2326 28.4125 10.0118 28.2097C9.77927 27.9955 9.57725 27.5439 9.65007 27.2697C9.73698 26.9425 10.0941 26.6453 10.4041 26.431C10.5827 26.3066 10.8951 26.3481 11.1465 26.3481C15.9363 26.3412 20.7261 26.3412 25.516 26.3389C25.7109 26.3389 25.9083 26.3412 26.1009 26.3711C26.7492 26.4725 27.111 26.8688 27.1016 27.4448C27.0922 28.0254 26.66 28.454 25.9975 28.4908C25.4713 28.5185 24.9428 28.5 24.4142 28.5C22.3799 28.5 20.3456 28.5 18.3136 28.5Z" fill="#73308B"/>
<path d="M13.9772 22.0476C14.9943 22.0476 16.0115 22.0407 17.0287 22.0499C17.8438 22.0568 18.3418 22.4831 18.3324 23.142C18.3254 23.7826 17.8555 24.1973 17.0568 24.2019C15.0037 24.2134 12.9506 24.2111 10.8951 24.1973C10.0706 24.1904 9.57258 23.7549 9.58198 23.1075C9.59372 22.4623 10.1035 22.0499 10.9233 22.0453C11.9405 22.0384 12.9577 22.043 13.9748 22.043C13.9772 22.0453 13.9772 22.0453 13.9772 22.0476Z" fill="#73308B"/>
</g>
<defs>
<filter id="filter0_d" x="0.166667" y="0.0555556" width="51.0031" height="39.6667" filterUnits="userSpaceOnUse" color-interpolation-filters="sRGB">
<feFlood flood-opacity="0" result="BackgroundImageFix"/>
<feColorMatrix in="SourceAlpha" type="matrix" values="0 0 0 0 0 0 0 0 0 0 0 0 0 0 0 0 0 0 127 0"/>
<feOffset dy="1.88889"/>
<feGaussianBlur stdDeviation="1.41667"/>
<feColorMatrix type="matrix" values="0 0 0 0 0 0 0 0 0 0 0 0 0 0 0 0 0 0 0.25 0"/>
<feBlend mode="normal" in2="BackgroundImageFix" result="effect1_dropShadow"/>
<feBlend mode="normal" in="SourceGraphic" in2="effect1_dropShadow" result="shape"/>
</filter>
</defs>
</svg>
