<svg width="161" height="96" viewBox="0 0 161 96" fill="none" xmlns="http://www.w3.org/2000/svg">
<path d="M154.718 94.2533H5.815C3.07778 94.2533 0.861328 92.0368 0.861328 89.2996V5.81451C0.861328 3.0773 3.07778 0.86084 5.815 0.86084H154.714C157.455 0.86084 159.672 3.0773 159.672 5.81451V89.2953C159.672 92.0368 157.455 94.2533 154.718 94.2533Z" fill="#F9F9F9"/>
<path d="M154.718 94.2533H5.815C3.07778 94.2533 0.861328 92.0368 0.861328 89.2996V5.81451C0.861328 3.0773 3.07778 0.86084 5.815 0.86084H154.714C157.455 0.86084 159.672 3.0773 159.672 5.81451V89.2953C159.672 92.0368 157.455 94.2533 154.718 94.2533Z" stroke="#EAE7EB" stroke-width="1.72152" stroke-miterlimit="10"/>
<path d="M57.3233 58.1013H20.5775C18.2448 58.1013 16.3555 56.2119 16.3555 53.8793V14.9815C16.3555 12.6489 18.2448 10.7595 20.5775 10.7595H57.3233C59.656 10.7595 61.5454 12.6489 61.5454 14.9815V53.8793C61.5454 56.2119 59.656 58.1013 57.3233 58.1013Z" fill="#FFFEFF"/>
<path d="M120.937 11.6204H73.165V20.228H120.937V11.6204Z" fill="#EAE7EB"/>
<path d="M120.937 25.3926H73.165V34.0002H120.937V25.3926Z" fill="white"/>
<path d="M120.937 38.3037H73.165V46.9113H120.937V38.3037Z" fill="white"/>
<path d="M120.937 49.9241H73.165V58.5317H120.937V49.9241Z" fill="white"/>
<path d="M148.912 74.0251H73.165V82.6327H148.912V74.0251Z" fill="#EAE7EB"/>
<path d="M61.5445 74.0251H15.0635V82.6327H61.5445V74.0251Z" fill="white"/>
<path d="M57.3233 58.1013H20.5775C18.2448 58.1013 16.3555 56.2119 16.3555 53.8793V14.9815C16.3555 12.6489 18.2448 10.7595 20.5775 10.7595H57.3233C59.656 10.7595 61.5454 12.6489 61.5454 14.9815V53.8793C61.5454 56.2119 59.656 58.1013 57.3233 58.1013Z" stroke="#EAE7EB" stroke-width="1.72152" stroke-miterlimit="10"/>
<path d="M39.5962 35.2437C43.8676 35.2437 47.3302 31.7811 47.3302 27.5098C47.3302 23.2385 43.8676 19.7759 39.5962 19.7759C35.3249 19.7759 31.8623 23.2385 31.8623 27.5098C31.8623 31.7811 35.3249 35.2437 39.5962 35.2437Z" fill="#EAE7EB"/>
<path d="M54.6512 42.9778C54.4618 39.8231 49.96 37.2795 44.4813 37.2795H34.7117C29.233 37.2795 24.7312 39.8274 24.5418 42.9778H24.5332V49.0849H34.7117H44.4813H54.6598V42.9778H54.6512Z" fill="#EAE7EB"/>
</svg>
