<svg viewBox="0 0 212 44" fill="none" xmlns="http://www.w3.org/2000/svg">
<g clip-path="url(#clip044)">
<path d="M53.9589 42.6966V18.6943C53.9589 18.0461 54.152 17.6644 54.5782 17.3191C55.3109 16.7466 56.2399 16.2135 57.1657 15.8682V25.1401C58.4779 24.6434 59.8698 24.3011 61.7614 24.3011C66.4736 24.3011 69.9105 27.4695 69.9105 33.458C69.9105 39.6009 66.2805 43.5326 60.0998 43.5326C57.8985 43.5357 55.3875 43.1904 53.9589 42.6966ZM66.6668 33.4216C66.6668 29.1082 64.3889 26.8576 61.2219 26.8576C59.6767 26.8576 58.5178 27.0878 57.1657 27.6603V40.6732C57.9383 40.9034 59.134 40.9791 60.2163 40.9791C64.1559 40.9791 66.6668 38.3832 66.6668 33.4216Z" fill="white"/>
<path d="M72.9733 43.269V24.6099C73.3596 24.5342 73.8624 24.4585 74.3652 24.4585C74.7913 24.4585 75.3309 24.4979 75.7172 24.6099C75.8705 25.4127 75.987 26.3274 76.0268 27.2059C77.339 25.4127 79.0774 24.4585 81.1253 24.4585C81.6281 24.4585 82.1309 24.5342 82.5939 24.6099C82.6705 24.9916 82.7104 25.4127 82.7104 25.7943C82.7104 26.2154 82.6705 26.7091 82.5571 27.1695C82.1708 27.0544 81.5914 27.0544 81.0886 27.0544C78.3477 27.0544 76.1832 29.3444 76.1832 32.74V43.272C75.7571 43.3478 75.101 43.4235 74.5215 43.4235C73.939 43.4205 73.3964 43.3447 72.9733 43.269Z" fill="white"/>
<path d="M98.061 31.8586V42.6209C95.9363 43.2328 93.5818 43.575 91.3406 43.575C86.9749 43.575 83.8079 41.7425 83.8079 37.6229C83.8079 34.0365 86.7419 31.9374 91.5706 31.9374C93.0759 31.9374 94.0049 32.0131 95.0472 32.1676V31.4436C95.0472 28.2752 93.3089 26.8637 90.2185 26.8637C88.5569 26.8637 87.0117 27.0545 85.353 27.5119C85.2764 27.1302 85.2365 26.6728 85.2365 26.2154C85.2365 25.7944 85.2764 25.3764 85.353 25.0311C86.7817 24.5737 88.6734 24.3071 90.335 24.3071C95.0105 24.3041 98.061 26.5547 98.061 31.8586ZM95.0472 40.7126V34.4151C94.1214 34.2637 93.1556 34.2243 91.8036 34.2243C88.4833 34.2243 86.7817 35.1785 86.7817 37.5442C86.7817 39.8341 88.4036 41.0942 91.4173 41.0942C92.616 41.0942 94.2379 40.9034 95.0472 40.7126Z" fill="white"/>
<path d="M100.915 34.2243C100.915 28.1177 104.622 24.3041 110.223 24.3041C111.422 24.3041 112.578 24.4192 113.66 24.6858V18.6943C113.66 18.0461 113.853 17.6644 114.239 17.3191C114.972 16.7072 115.978 16.2135 116.867 15.8682V42.427C115.168 42.9995 112.618 43.572 110.03 43.572C104.545 43.572 100.915 40.3309 100.915 34.2243ZM113.66 40.5218V27.2423C112.811 27.0121 111.689 26.8607 110.376 26.8607C106.63 26.8607 104.159 29.3021 104.159 34.2243C104.159 38.4983 106.32 41.0155 110.147 41.0155C111.189 41.0155 112.385 40.864 113.66 40.5218Z" fill="white"/>
<path d="M135.492 34.6061H123.017C123.21 38.5741 125.335 41.0156 129.198 41.0156C131.129 41.0156 132.828 40.6339 134.489 40.1008C134.566 40.4825 134.606 40.9035 134.606 41.3215C134.606 41.7425 134.566 42.1606 134.489 42.5422C133.177 43.1147 131.053 43.5358 128.968 43.5358C123.253 43.5358 119.93 39.8736 119.93 33.9972C119.93 28.1966 123.137 24.3042 128.195 24.3042C132.598 24.3042 135.612 27.4726 135.612 32.5463C135.608 33.0794 135.572 34.1487 135.492 34.6061ZM132.598 32.2404C132.598 29.0356 131.013 26.7456 128.155 26.7456C125.451 26.7456 123.327 28.8054 123.057 32.2404H132.598Z" fill="white"/>
<path d="M137.555 42.4272C137.439 42.0062 137.402 41.5882 137.402 41.1671C137.402 40.7097 137.442 40.2887 137.555 39.907C139.294 40.5946 141.032 40.9763 143 40.9763C144.855 40.9763 146.787 40.2887 146.787 38.2683C146.787 36.781 145.937 35.9783 143.736 35.0242L142.307 34.4123C138.907 32.9614 137.865 31.5498 137.865 29.1084C137.865 26.2459 140.799 24.3013 144.276 24.3013C146.167 24.3013 148.139 24.6829 149.221 25.216C149.297 25.5583 149.337 25.9794 149.337 26.361C149.337 26.7821 149.297 27.2395 149.221 27.6575C147.752 27.1607 146.363 26.8548 144.702 26.8548C142.77 26.8548 141.032 27.4273 141.032 29.1841C141.032 30.5957 142.034 31.1288 143.889 31.9709L145.744 32.8099C148.641 34.1064 149.993 35.6724 149.993 38.3047C149.993 41.5094 147.059 43.5328 143.426 43.5328C140.915 43.5359 139.024 43.1542 137.555 42.4272Z" fill="white"/>
<path d="M152.097 33.9186C152.097 28.1936 155.303 24.3013 160.595 24.3013C162.45 24.3013 163.879 24.6436 165.191 25.216C165.267 25.5977 165.307 26.0188 165.307 26.4368C165.307 26.8184 165.267 27.3152 165.191 27.7332C163.879 27.2001 162.603 26.8942 161.175 26.8942C157.158 26.8942 155.343 29.4901 155.343 33.8762C155.343 38.2653 157.118 40.9369 161.214 40.9369C162.836 40.9369 164.228 40.5946 165.5 40.1736C165.577 40.5553 165.617 40.9763 165.617 41.3943C165.617 41.8153 165.577 42.2727 165.5 42.6544C164.072 43.2663 162.527 43.5328 160.712 43.5328C155.147 43.5359 152.097 39.8343 152.097 33.9186Z" fill="white"/>
<path d="M181.759 31.8586V42.6209C179.634 43.2328 177.279 43.575 175.038 43.575C170.673 43.575 167.505 41.7425 167.505 37.6229C167.505 34.0365 170.44 31.9374 175.268 31.9374C176.774 31.9374 177.703 32.0131 178.745 32.1676V31.4436C178.745 28.2752 177.007 26.8637 173.916 26.8637C172.255 26.8637 170.709 27.0545 169.051 27.5119C168.974 27.1302 168.934 26.6728 168.934 26.2154C168.934 25.7944 168.974 25.3764 169.051 25.0311C170.479 24.5737 172.371 24.3071 174.033 24.3071C178.708 24.3041 181.759 26.5547 181.759 31.8586ZM178.745 40.7126V34.4151C177.819 34.2637 176.853 34.2243 175.501 34.2243C172.181 34.2243 170.479 35.1785 170.479 37.5442C170.479 39.8341 172.101 41.0942 175.115 41.0942C176.314 41.0942 177.936 40.9034 178.745 40.7126Z" fill="white"/>
<path d="M185.502 43.269V24.6099C185.888 24.5342 186.391 24.4585 186.894 24.4585C187.32 24.4585 187.86 24.4979 188.246 24.6099C188.399 25.4127 188.516 26.3274 188.556 27.2059C189.868 25.4127 191.606 24.4585 193.654 24.4585C194.157 24.4585 194.66 24.5342 195.123 24.6099C195.199 24.9916 195.239 25.4127 195.239 25.7943C195.239 26.2154 195.199 26.7091 195.086 27.1695C194.699 27.0544 194.12 27.0544 193.617 27.0544C190.876 27.0544 188.712 29.3444 188.712 32.74V43.272C188.286 43.3478 187.63 43.4235 187.05 43.4235C186.465 43.4205 185.925 43.3447 185.502 43.269Z" fill="white"/>
<path d="M196.048 34.2243C196.048 28.1177 199.755 24.3041 205.356 24.3041C206.555 24.3041 207.711 24.4192 208.793 24.6858V18.6943C208.793 18.0461 208.986 17.6644 209.373 17.3191C210.105 16.7072 211.111 16.2135 212 15.8682V42.427C210.302 42.9995 207.751 43.572 205.163 43.572C199.678 43.572 196.048 40.3309 196.048 34.2243ZM208.793 40.5218V27.2423C207.944 27.0121 206.822 26.8607 205.51 26.8607C201.763 26.8607 199.292 29.3021 199.292 34.2243C199.292 38.4983 201.454 41.0155 205.28 41.0155C206.322 41.0155 207.518 40.864 208.793 40.5218Z" fill="white"/>
<path d="M19.0057 33.4795V43.1998C19.0057 43.4422 19.205 43.639 19.4502 43.639H22.0899V31.2168L19.4533 32.7162C19.1774 32.8707 19.0057 33.1161 19.0057 33.4795ZM21.7772 9.58928C19.0976 9.58928 16.1728 9.83161 13.2787 10.3193C16.2066 6.60262 20.8482 4.20663 26.0265 4.20663C29.8465 4.20663 33.6665 5.63029 36.2388 7.74761C36.7017 8.12927 37.0604 8.16562 37.4161 7.81728C37.7717 7.46894 37.738 7.12362 37.3456 6.67229C33.9885 2.81932 29.0616 0.217345 23.2427 0.320334C15.6363 0.459671 9.17351 5.21531 6.70857 11.8096C4.45824 12.5032 2.3888 13.3362 0.567684 14.3449C0.0679511 14.6236 -0.109868 14.9689 0.0679511 15.3869C0.24577 15.7656 0.604474 15.9049 1.10421 15.7656C2.67392 15.3142 4.28349 14.9326 5.9605 14.5842C5.78268 15.4505 5.67538 16.3532 5.67538 17.2922C5.53129 23.3655 8.81787 29.1268 13.8888 32.2861C14.3885 32.5981 14.8177 32.5981 15.1028 32.2164C15.388 31.8348 15.3542 31.4864 14.925 31.1048C11.712 28.2574 9.92464 24.0228 9.92464 19.8245C9.92464 17.7072 10.3539 15.6595 11.1755 13.8209C12.8525 13.6816 14.6736 13.5786 16.6756 13.5786C29.6717 13.5786 40.6352 17.8132 40.6352 23.3655C40.6352 26.1765 37.0298 28.9874 32.7437 30.8624C31.7075 31.3138 31.6002 31.6258 31.7443 32.0771C31.8883 32.4951 32.3513 32.6314 32.8878 32.4588C40.3869 30.0294 46.0648 26.0371 46.0648 21.2118C46.0587 14.6569 35.3466 9.58928 21.7772 9.58928ZM27.0229 28.4089L23.1752 30.5959V43.636H27.2926C27.6759 43.636 27.9855 43.3301 27.9855 42.9514V28.8966C27.9825 28.3635 27.4582 28.1666 27.0229 28.4089Z" fill="white"/>
</g>
<defs>
<clipPath id="clip043">
<rect width="212" height="43.3217" fill="white" transform="translate(0 0.316895)"/>
</clipPath>
</defs>
</svg>
