<svg viewBox="0 0 64 60" fill="none" xmlns="http://www.w3.org/2000/svg">
<path d="M26.1631 45.6525V59.0339C26.1631 59.3675 26.4374 59.6386 26.775 59.6386H30.409V42.5376L26.7793 44.6017C26.3994 44.8144 26.1631 45.1521 26.1631 45.6525ZM29.9785 12.7641C26.2897 12.7641 22.2632 13.0977 18.279 13.7691C22.3097 8.65254 28.6996 5.35411 35.8282 5.35411C41.087 5.35411 46.3459 7.31399 49.8869 10.2288C50.5242 10.7542 51.0181 10.8042 51.5076 10.3247C51.9972 9.84515 51.9508 9.36978 51.4106 8.74845C46.789 3.44427 40.0066 -0.137716 31.9959 0.00406246C21.5246 0.19588 12.6277 6.7427 9.23431 15.8207C6.13641 16.7756 3.28751 17.9223 0.780491 19.3109C0.0925362 19.6946 -0.152257 20.17 0.0925362 20.7454C0.33733 21.2667 0.831138 21.4585 1.51909 21.2667C3.68003 20.6453 5.89583 20.1199 8.20449 19.6404C7.9597 20.833 7.81198 22.0756 7.81198 23.3683C7.61361 31.7291 12.1381 39.6603 19.1189 44.0096C19.8069 44.4391 20.3977 44.4391 20.7903 43.9137C21.1828 43.3883 21.1363 42.9087 20.5455 42.3833C16.1223 38.4635 13.6617 32.6339 13.6617 26.8544C13.6617 23.9396 14.2526 21.1207 15.3837 18.5895C17.6924 18.3977 20.1994 18.2559 22.9554 18.2559C40.8465 18.2559 55.9392 24.0855 55.9392 31.7291C55.9392 35.5988 50.9758 39.4685 45.0755 42.0497C43.6489 42.671 43.5012 43.1005 43.6996 43.7218C43.8979 44.2973 44.5352 44.485 45.2738 44.2473C55.5974 40.903 63.4139 35.407 63.4139 28.7642C63.4055 19.7404 48.6587 12.7641 29.9785 12.7641ZM37.1999 38.672L31.903 41.6827V59.6344H37.5713C38.0989 59.6344 38.5251 59.2132 38.5251 58.692V39.3434C38.5209 38.6095 37.7992 38.3384 37.1999 38.672Z" fill="white"/>
</svg>
