<svg viewBox="0 0 62 88" fill="none" xmlns="http://www.w3.org/2000/svg">
<path d="M24.7318 77.7238C27.2538 77.7238 29.2983 75.6838 29.2983 73.1674C29.2983 70.6509 27.2538 68.611 24.7318 68.611C22.2098 68.611 20.1653 70.6509 20.1653 73.1674C20.1653 75.6838 22.2098 77.7238 24.7318 77.7238Z" fill="#B41A83"/>
<path d="M29.9107 13.9467C31.0993 13.9467 32.0699 12.9825 32.0699 11.7922C32.0699 10.6061 31.1036 9.6377 29.9107 9.6377H19.5548C18.3661 9.6377 17.3955 10.6019 17.3955 11.7922C17.3955 12.9782 18.3618 13.9467 19.5548 13.9467H29.9107Z" fill="#73308B"/>
<path d="M45.0123 58.7984H4.45243V7.31673C4.45243 5.65713 5.80785 4.30471 7.47112 4.30471H41.9894C43.6527 4.30471 45.0081 5.65713 45.0081 7.31673V17.5047L49.3223 13.2384V7.31673C49.3223 3.2808 46.03 0 41.9894 0H7.47112C3.42625 0 0.138184 3.28506 0.138184 7.31673V79.9849C0.138184 84.0208 3.43052 87.3016 7.47112 87.3016H41.9894C46.0343 87.3016 49.3223 84.0165 49.3223 79.9849V39.1648L45.0081 43.4311V58.7984H45.0123ZM41.9894 83.0012H7.47112C5.80785 83.0012 4.45243 81.6488 4.45243 79.9892V63.4913H45.0081V79.9892C45.0123 81.6488 43.6569 83.0012 41.9894 83.0012Z" fill="#73308B"/>
<path d="M17.1046 32.1938L13.7524 35.4874L27.8069 49.7241L62.0002 15.0048L58.648 11.7155L27.8026 43.0303L17.1046 32.1938Z" fill="#B41A83"/>
</svg>
