<svg viewBox="0 0 46 53" fill="none" xmlns="http://www.w3.org/2000/svg">
<g clip-path="url(#clip10)" filter="url(#filter10_d)">
<path d="M43.1822 16.8494L27.9943 1.58142C27.7095 1.29512 27.3234 1.13432 26.9217 1.13432H3.63662C2.79804 1.13432 2.11938 1.81673 2.11938 2.65994V48.4913C2.11938 49.3346 2.79804 50.017 3.63662 50.017H42.1057C42.9443 50.017 43.623 49.3346 43.623 48.4913V17.9319C43.6269 17.524 43.4669 17.1357 43.1822 16.8494ZM40.5885 46.9657H5.15775V4.18949H26.2937L40.5885 18.5633V46.9657Z" fill="currentColor"/>
<path d="M28.8133 25.6659H24.3903V21.2223C24.3903 20.3791 23.7117 19.6967 22.8731 19.6967C22.0345 19.6967 21.3559 20.3791 21.3559 21.2223V25.6659H16.9329C16.0943 25.6659 15.4156 26.3483 15.4156 27.1915C15.4156 28.0347 16.0943 28.7171 16.9329 28.7171H21.352V33.1606C21.352 34.0038 22.0306 34.6862 22.8692 34.6862C23.7078 34.6862 24.3864 34.0038 24.3864 33.1606V28.721H28.8055C29.6441 28.721 30.3228 28.0386 30.3228 27.1954C30.3228 26.3522 29.6519 25.6659 28.8133 25.6659Z" fill="currentColor"/>
</g>
<defs>
<filter id="filter10_d" x="0.274609" y="0.211935" width="45.197" height="52.5761" filterUnits="userSpaceOnUse" color-interpolation-filters="sRGB">
<feFlood flood-opacity="0" result="BackgroundImageFix"/>
<feColorMatrix in="SourceAlpha" type="matrix" values="0 0 0 0 0 0 0 0 0 0 0 0 0 0 0 0 0 0 127 0"/>
<feOffset dy="0.922388"/>
<feGaussianBlur stdDeviation="0.922388"/>
<feColorMatrix type="matrix" values="0 0 0 0 0 0 0 0 0 0 0 0 0 0 0 0 0 0 0.15 0"/>
<feBlend mode="normal" in2="BackgroundImageFix" result="effect1_dropShadow"/>
<feBlend mode="normal" in="SourceGraphic" in2="effect1_dropShadow" result="shape"/>
</filter>
<clipPath id="clip10">
<rect width="41.5075" height="48.8866" fill="currentColor" transform="translate(2.11938 1.13432)"/>
</clipPath>
</defs>
</svg>
