<svg width="1em" height="1em" viewBox="0 0 19 25" fill="none" xmlns="http://www.w3.org/2000/svg">
<path d="M18.5387 6.55238C17.6473 3.67147 15.3385 1.33744 12.5134 0.45852C9.49829 -0.474115 6.35655 0.0288246 3.89674 1.85015C2.71797 2.72419 1.73892 3.87167 1.06673 5.17541C0.365319 6.52797 0 8.04167 0 9.56514C0 11.6404 0.657574 13.6179 1.89479 15.2733L9.49829 25L17.0969 15.2879L17.1067 15.2733C18.9625 12.7927 19.4837 9.61397 18.5387 6.55238ZM15.9425 14.3894L9.49829 22.6269L3.05894 14.3894C2.01656 12.9881 1.46128 11.323 1.46128 9.56514C1.46128 7.00161 2.69362 4.55528 4.76376 3.03181C6.84851 1.48881 9.51778 1.064 12.0799 1.85991C14.4569 2.59723 16.3955 4.56016 17.1456 6.98696C17.9445 9.58955 17.511 12.2898 15.9425 14.3894Z" fill="currentColor"/>
<path d="M9.49728 4.43799C6.67702 4.43799 4.38281 6.73784 4.38281 9.56504C4.38281 12.3922 6.67702 14.6921 9.49728 14.6921C12.3175 14.6921 14.6117 12.3922 14.6117 9.56504C14.6117 6.73784 12.3224 4.43799 9.49728 4.43799ZM9.49728 13.2272C7.48072 13.2272 5.84409 11.5817 5.84409 9.56504C5.84409 7.54352 7.48559 5.90286 9.49728 5.90286C11.5138 5.90286 13.1505 7.5484 13.1505 9.56504C13.1553 11.5866 11.5138 13.2272 9.49728 13.2272Z" fill="currentColor"/>
</svg>
