<svg width="162" height="143" viewBox="0 0 162 143" fill="none" xmlns="http://www.w3.org/2000/svg">
<circle cx="90.3869" cy="71.5001" r="71.5001" fill="#F4F2F4"/>
<path d="M2.13247 99.4502C0.917667 99.46 -0.0239303 100.421 0.000463406 101.621C0.0248571 102.773 0.951818 103.665 2.12272 103.661C3.34728 103.656 4.26936 102.714 4.24009 101.494C4.21082 100.319 3.30825 99.4453 2.13247 99.4502Z" fill="#F4F2F4"/>
<path d="M8.74449 88.5463C8.83719 89.8294 9.78366 90.7222 10.9497 90.6832C12.0767 90.6441 12.9012 89.7806 12.9744 88.5121C13.0134 87.8389 12.9792 87.1656 12.9792 86.3899C13.8281 86.3899 14.4721 86.4143 15.1161 86.385C16.3797 86.3216 17.2286 85.4971 17.2579 84.3457C17.2872 83.1455 16.4236 82.2429 15.121 82.1649C14.4526 82.1259 13.7745 82.16 12.9792 82.16C12.9792 81.3697 13.0036 80.7696 12.9744 80.1695C12.9109 78.8083 12.1011 77.9204 10.935 77.8765C9.73 77.8326 8.80304 78.7742 8.73473 80.1451C8.70546 80.7744 8.72986 81.4087 8.72986 82.0917C6.91984 82.2722 4.59268 81.6331 4.55365 84.2286C4.50974 86.9558 6.94911 86.2094 8.73961 86.4826C8.73473 87.2534 8.6957 87.9023 8.74449 88.5463Z" fill="#E21841"/>
<path d="M115.998 32.2734C105.05 25.0786 92.7938 23.0738 79.5723 26.3212C77.9527 26.7188 77.1782 27.9159 77.551 29.4402C77.7498 30.2562 78.4249 31.5651 80.6907 31.155C81.312 31.0432 81.9291 30.9231 82.5504 30.8029C84.2487 30.4716 86.0091 30.1278 87.7198 30.0035C101.463 29.0177 112.837 33.545 121.515 43.457C127.144 49.8896 130.619 56.8359 131.845 64.1053C133.076 71.4243 132.032 79.1079 128.739 86.9447C122.633 101.483 111.247 109.834 94.8938 111.764C87.0736 112.688 79.2078 111.089 71.5201 107.021C63.617 102.838 57.2051 95.8833 53.473 87.4459C49.7369 78.9919 48.925 69.5852 51.1949 60.9573C54.4381 48.618 61.9187 39.4806 73.4296 33.7935C74.1544 33.4373 76.3539 32.3479 75.3101 30.1278C75.016 29.5023 74.5811 29.084 74.0178 28.8852C73.2722 28.6201 72.4189 28.7567 71.2426 29.3242C64.1016 32.7704 58.2903 37.5918 53.9701 43.6475C45.4954 55.5312 42.9894 68.587 46.5268 82.4423C49.0866 92.4702 54.7695 101.077 62.9625 107.332C71.1266 113.562 81.0262 116.888 91.5967 116.95H91.6299H91.663C91.9157 116.938 92.2056 116.925 92.5204 116.913C93.3696 116.88 94.4216 116.842 95.4779 116.718C97.0933 116.527 98.9986 116.279 100.892 115.865C110.965 113.657 120.115 108.069 126.664 100.133C133.241 92.1596 136.928 82.1192 137.04 71.8634C137.23 54.9016 130.147 41.5806 115.998 32.2734Z" fill="#E21841"/>
<path d="M91.7033 86.7214C86.592 87.9185 82.6363 90.9173 79.4344 93.6884C78.3451 94.6328 78.2167 95.9831 79.1114 97.1263C79.6001 97.7518 80.2297 98.0707 80.9132 98.0707C81.4682 98.0707 82.0564 97.8636 82.6321 97.4411C83.0546 97.1304 83.4688 96.8115 83.883 96.4926C84.7612 95.8174 85.5937 95.1754 86.4843 94.6328C90.9991 91.8824 95.1371 89.8238 100.054 92.5162C100.7 92.8724 101.445 92.8641 102.087 92.4913C102.903 92.0191 103.409 91.0664 103.438 89.9357L103.45 89.5007L103.148 89.1901C103.106 89.1487 103.061 89.0865 103.007 89.0203C102.767 88.7179 102.402 88.2623 101.872 87.9723C98.778 86.2823 95.3607 85.864 91.7033 86.7214Z" fill="#E21841"/>
<path d="M83.3343 68.3505C82.7917 68.3049 80.9899 68.367 80.6461 70.8813C80.4846 72.0825 79.8674 73.5115 77.8585 73.5115C77.8502 73.5115 77.8419 73.5115 77.8337 73.5115C76.1768 73.5032 75.0957 72.5381 74.8679 70.8647C74.5946 68.8641 73.2898 68.2511 72.1632 68.3463C71.0075 68.4457 69.8146 69.2783 69.9223 71.3203C70.1542 75.6405 73.3561 78.6684 77.7053 78.6891C77.7177 78.6891 77.7301 78.6891 77.7425 78.6891C82.1373 78.6891 85.4344 75.5825 85.5835 71.2913C85.6788 68.7357 83.8894 68.396 83.3343 68.3505Z" fill="#E21841"/>
<path d="M104.206 78.6932C108.53 78.6932 111.674 75.8062 112.035 71.5108C112.258 68.8558 110.456 68.425 109.901 68.3546C108.729 68.2096 107.383 68.8061 107.097 70.9102C106.927 72.1487 106.451 72.8736 105.548 73.2671C104.62 73.6689 103.618 73.6316 102.802 73.1677C101.982 72.6996 101.439 71.8546 101.319 70.8481C101.12 69.2244 100.143 68.2924 98.7344 68.3463C97.5622 68.3919 96.332 69.1747 96.3817 71.2292C96.4935 75.5535 99.7823 78.6891 104.206 78.6932Z" fill="#E21841"/>
<path d="M5.22352 123.064C3.3778 123.003 1.8219 124.513 1.79902 126.39C1.77614 128.205 3.17187 129.684 4.97184 129.746C6.85569 129.807 8.36583 128.35 8.38108 126.435C8.40396 124.605 7.00823 123.118 5.22352 123.064Z" fill="#F4F2F4"/>
<path d="M28.1898 113.851C22.5916 113.881 18.1756 118.396 18.2519 123.995C18.3282 129.517 22.767 133.856 28.3042 133.818C33.8338 133.788 38.2269 129.387 38.2498 123.865C38.2803 118.29 33.788 113.82 28.1898 113.851Z" fill="#F4F2F4"/>
</svg>
