<svg width="261" height="201" viewBox="0 0 261 201" fill="none" xmlns="http://www.w3.org/2000/svg">
<g id="Frame" clip-path="url(#clip0)">
<g id="Clouds1">
<path id="Vector" d="M176.122 26.6867C174.87 22.1502 170.808 18.8204 165.676 18.8204C162.812 18.8204 161.418 17.9403 160.994 15.6449C160.075 10.8543 156.164 7.34611 151.301 7.34611C149.777 7.34611 148.307 7.69391 146.931 8.37438C145.204 9.23632 143.13 8.64959 142.101 7.01645C139.31 2.62512 134.556 0 129.357 0C121.058 0 114.283 6.75636 114.283 15.0733C114.283 16.9635 112.889 18.6904 111.014 18.9293C106.641 19.4949 103.148 22.6281 101.98 26.6867H176.122Z" fill="#F0F5FA"/>
<path id="Vector_2" d="M55.2736 39.6551C54.3724 36.3949 51.4539 34.0026 47.7673 34.0026C45.7077 34.0026 44.7066 33.3705 44.4042 31.7192C43.7449 28.2745 40.9353 25.7552 37.4391 25.7552C36.3443 25.7552 35.2888 26.0063 34.2999 26.4932C33.0599 27.1132 31.5689 26.6898 30.831 25.5163C28.8258 22.3619 25.4083 20.4778 21.6763 20.4778C15.7123 20.4778 10.8432 25.3318 10.8432 31.3109C10.8432 32.6689 9.83907 33.9089 8.49324 34.0812C5.35096 34.4865 2.84076 36.7396 2 39.6551H55.2736Z" fill="#CEE0FA"/>
</g>
<g id="Clouds2">
<path id="Vector_3" d="M248.274 43.6551C247.372 40.3949 244.454 38.0026 240.767 38.0026C238.708 38.0026 237.707 37.3705 237.404 35.7192C236.745 32.2745 233.935 29.7552 230.439 29.7552C229.344 29.7552 228.289 30.0063 227.3 30.4932C226.06 31.1132 224.569 30.6898 223.831 29.5163C221.826 26.3619 218.408 24.4778 214.676 24.4778C208.712 24.4778 203.843 29.3318 203.843 35.3109C203.843 36.6689 202.839 37.9089 201.493 38.0812C198.351 38.4865 195.841 40.7396 195 43.6551H248.274Z" fill="#CEE0FA"/>
</g>
<g id="Lines2">
<path id="Vector_4" d="M76.3868 54.057H5.65972C4.82501 54.057 4.14453 53.3795 4.14453 52.5418C4.14453 51.7071 4.82198 51.0266 5.65972 51.0266H76.3868C77.2215 51.0266 77.902 51.7041 77.902 52.5418C77.899 53.3795 77.2215 54.057 76.3868 54.057Z" fill="#CEE0FA"/>
<path id="Vector_5" d="M75.6937 63.3507H44.6519C43.8172 63.3507 43.1367 62.6732 43.1367 61.8355C43.1367 61.0008 43.8142 60.3203 44.6519 60.3203H75.6967C76.5314 60.3203 77.2119 60.9978 77.2119 61.8355C77.2089 62.6702 76.5314 63.3507 75.6937 63.3507Z" fill="#CEE0FA"/>
</g>
<g id="Lines1">
<path id="Vector_6" d="M269.387 121.057H198.66C197.825 121.057 197.145 120.38 197.145 119.542C197.145 118.707 197.822 118.027 198.66 118.027H269.387C270.222 118.027 270.902 118.704 270.902 119.542C270.899 120.38 270.222 121.057 269.387 121.057Z" fill="#CEE0FA"/>
<path id="Vector_7" d="M268.694 130.351H237.652C236.817 130.351 236.137 129.673 236.137 128.836C236.137 128.001 236.814 127.32 237.652 127.32H268.697C269.531 127.32 270.212 127.998 270.212 128.836C270.209 129.67 269.531 130.351 268.694 130.351Z" fill="#CEE0FA"/>
</g>
<g id="Lines3">
<path id="Vector_8" d="M17.5121 135.992H71.4299C72.9028 135.992 74.0944 134.798 74.0944 133.328C74.0944 131.855 72.8997 130.663 71.4299 130.663H17.5121C16.0392 130.663 14.8477 131.858 14.8477 133.328C14.8477 134.798 16.0392 135.992 17.5121 135.992Z" fill="#F0F5FA"/>
<path id="Vector_9" d="M6.36756 125.428H26.8725C28.3454 125.428 29.537 124.234 29.537 122.764C29.537 121.291 28.3424 120.099 26.8725 120.099H6.36756C4.89471 120.099 3.70313 121.294 3.70313 122.764C3.70312 124.237 4.89471 125.428 6.36756 125.428Z" fill="#F0F5FA"/>
</g>
<g id="Truck">
<ellipse id="Ellipse 40" cx="91.5" cy="160.5" rx="52.5" ry="12.5" fill="#F7F7F7"/>
<ellipse id="Ellipse 39" cx="131.5" cy="160" rx="90.5" ry="10" fill="#F7F7F7"/>
<path id="Vector_10" d="M159.078 128.31H105.245C103.745 128.31 102.523 129.532 102.523 131.032C102.523 132.532 103.745 133.754 105.245 133.754H159.078C160.579 133.754 161.8 132.532 161.8 131.032C161.8 129.532 160.579 128.31 159.078 128.31Z" fill="#73308B"/>
<path id="Vector_11" d="M235.73 113.086L223.608 107.025L216.961 87.0796C215.352 82.2558 210.854 79.0137 205.77 79.0137H187.812V54.5166C187.812 53.0165 186.59 51.7947 185.09 51.7947H76.2141C74.714 51.7947 73.4922 53.0165 73.4922 54.5166V150.388C73.4922 151.888 74.714 153.11 76.2141 153.11H92.1886L92.6181 154.317C94.2875 159.019 98.7544 162.183 103.739 162.183C108.723 162.183 113.19 159.022 114.859 154.317L115.288 153.11H200.768L201.198 154.317C202.867 159.019 207.334 162.183 212.318 162.183C217.302 162.183 221.769 159.022 223.439 154.317L223.868 153.11H239.528C241.028 153.11 242.25 151.888 242.25 150.388V123.635C242.25 119.141 239.752 115.097 235.73 113.086ZM103.736 156.739C100.233 156.739 97.3844 153.89 97.3844 150.388C97.3844 146.886 100.233 144.037 103.736 144.037C107.238 144.037 110.087 146.886 110.087 150.388C110.087 153.89 107.238 156.739 103.736 156.739ZM182.368 147.666H115.282L114.853 146.459C113.184 141.757 108.717 138.593 103.732 138.593C98.7484 138.593 94.2815 141.753 92.612 146.459L92.1826 147.666H78.936V134.964H85.2871C86.7872 134.964 88.009 133.742 88.009 132.242C88.009 130.742 86.7872 129.52 85.2871 129.52H78.936V57.2385H182.368V147.666ZM187.812 84.4575H205.77C208.508 84.4575 210.93 86.2025 211.795 88.8004L217.605 106.233H187.812V84.4575ZM212.309 156.739C208.807 156.739 205.958 153.89 205.958 150.388C205.958 146.886 208.807 144.037 212.309 144.037C215.811 144.037 218.66 146.886 218.66 150.388C218.66 153.89 215.811 156.739 212.309 156.739ZM236.806 129.52H230.455C228.955 129.52 227.733 130.742 227.733 132.242C227.733 133.742 228.955 134.964 230.455 134.964H236.806V147.666H223.856L223.427 146.459C221.757 141.757 217.29 138.593 212.306 138.593C207.322 138.593 202.855 141.753 201.186 146.459L200.756 147.666H187.812V111.676H220.741L233.298 117.955C235.46 119.038 236.806 121.215 236.806 123.635V129.52Z" fill="#B41A83" stroke="#B41A83" stroke-width="0.604867" stroke-miterlimit="10"/>
<g id="Group">
<path id="Vector_12" d="M163.808 119.503L99.1292 119.694C95.996 119.703 93.4495 117.172 93.4404 114.038L93.3164 71.5073C93.3074 68.374 95.8387 65.8276 98.9719 65.8185L163.647 65.628C166.781 65.6189 169.327 68.1502 169.336 71.2835L169.46 113.815C169.472 116.948 166.938 119.494 163.808 119.503Z" fill="#E8EDFC"/>
<path id="Vector_13" d="M100.128 79.2373L118.274 79.3159L118.616 97.7039L100.07 97.8037L100.128 79.2373Z" fill="#CAD9FC"/>
<g id="Group_2">
<path id="Vector_14" d="M113.146 105.199L102.852 105.229L102.867 110.497L113.162 110.467L113.146 105.199Z" fill="#B41A83"/>
<path id="Vector_15" d="M122.161 76.0821L102.766 76.1392L102.82 94.4817L122.215 94.4246L122.161 76.0821Z" fill="#B41A83"/>
<path id="Vector_16" d="M116.528 81.4366L108.426 81.4604L108.448 89.1211L116.551 89.0972L116.528 81.4366Z" fill="#F8FAFB"/>
<path id="Vector_17" d="M128.228 105.156L117.934 105.187L117.949 110.455L128.244 110.425L128.228 105.156Z" fill="#B41A83"/>
<path id="Vector_18" d="M143.31 105.111L133.016 105.141L133.031 110.41L143.326 110.379L143.31 105.111Z" fill="#B41A83"/>
<path id="Vector_19" d="M158.396 105.066L148.102 105.096L148.117 110.364L158.412 110.334L158.396 105.066Z" fill="#B41A83"/>
<path id="Vector_20" d="M158.342 86.5112L148.047 86.5415L148.062 91.8099L158.357 91.7796L158.342 86.5112Z" fill="#F8FAFB"/>
<path id="Vector_21" d="M158.316 76.6925L136.559 76.7566L136.574 82.025L158.331 81.9609L158.316 76.6925Z" fill="#73308B"/>
<path id="Vector_22" d="M98.4114 122.534C96.5545 122.331 94.8306 121.512 93.4848 120.172C91.9151 118.611 91.0472 116.531 91.0381 114.317L90.9141 71.7855C90.902 67.2157 94.6068 63.4867 99.1796 63.4716L163.858 63.2811C166.072 63.272 168.156 64.1309 169.725 65.6915C171.295 67.252 172.163 69.3328 172.172 71.5466L172.296 114.078C172.302 116.292 171.446 118.375 169.885 119.945C168.325 121.515 166.244 122.383 164.03 122.389L99.352 122.579C99.0375 122.585 98.7229 122.567 98.4114 122.534ZM164.221 68.5374C164.106 68.5253 163.991 68.5192 163.873 68.5192L99.1947 68.7098C97.5102 68.7158 96.1462 70.0889 96.1492 71.7734L96.2732 114.305C96.2762 115.121 96.5968 115.886 97.1745 116.461C97.7521 117.036 98.5203 117.35 99.3369 117.35L164.015 117.16C164.832 117.157 165.597 116.836 166.172 116.258C166.746 115.681 167.061 114.913 167.061 114.096L166.937 71.5647C166.934 70.7482 166.613 69.983 166.036 69.4084C165.54 68.9154 164.904 68.613 164.221 68.5374Z" fill="#73308B"/>
</g>
</g>
</g>
<path id="Cross4" d="M220.818 187.971V182.248H215.787V187.971H215.613H209.891V192.999H215.613V198.725H220.645V192.999H220.818H226.541V187.971H220.818Z" fill="#B41A83"/>
<path id="Cross3" d="M210.818 61.9707V56.248H205.787V61.9707H205.613H199.891V66.9994H205.613V72.7249H210.645V66.9994H210.818H216.541V61.9707H210.818Z" fill="#B41A83"/>
<path id="Cross2" d="M51.6506 83.5044V77.9272H46.7479V83.5044H46.58H41V88.4072H46.58V93.9872H51.4827V88.4072H51.6506H57.2306V83.5044H51.6506Z" fill="#73308B"/>
<path id="Cross1" d="M63.6506 148.504V142.927H58.7479V148.504H58.58H53V153.407H58.58V158.987H63.4827V153.407H63.6506H69.2306V148.504H63.6506Z" fill="#73308B"/>
<g id="Tire2">
<circle id="Ellipse 38" cx="213" cy="151" r="10" fill="white" stroke="#B41A83" stroke-width="6"/>
<line id="Line 21" x1="213" y1="143" x2="213" y2="159" stroke="#B41A83" stroke-width="2"/>
<line id="Line 20" x1="220" y1="151" x2="205" y2="151" stroke="#B41A83" stroke-width="2"/>
</g>
<g id="Tire1">
<circle id="Ellipse 38_2" cx="103" cy="151" r="10" fill="white" stroke="#B41A83" stroke-width="6"/>
<line id="Line 21_2" x1="103" y1="143" x2="103" y2="159" stroke="#B41A83" stroke-width="2"/>
<line id="Line 20_2" x1="110" y1="151" x2="95" y2="151" stroke="#B41A83" stroke-width="2"/>
</g>
</g>
<defs>
<clipPath id="clip0">
<rect width="261" height="200.894" fill="white"/>
</clipPath>
</defs>
</svg>
