<svg width="244" height="223" viewBox="0 0 244 223" fill="none" xmlns="http://www.w3.org/2000/svg">
<g id="Frame" clip-path="url(#clip0)">
<g id="Group">
<path id="Cross1" d="M238.443 171.662V165.939H233.412V171.662H233.238H227.516V176.691H233.238V182.416H238.27V176.691H238.443H244.166V171.662H238.443Z" fill="#B41A83"/>
<path id="Cross2" d="M35.4433 128.662V122.94H30.4118V128.662H30.2383H24.5156V133.691H30.2383V139.417H35.2698V133.691H35.4433H41.166V128.662H35.4433Z" fill="#B41A83"/>
<path id="Cross3" d="M69.2756 77.1961V71.6189H64.3729V77.1961H64.205H58.625V82.0988H64.205V87.6788H69.1077V82.0988H69.2756H74.8556V77.1961H69.2756Z" fill="#73308B"/>
<path id="Cross4" d="M225.276 88.1961V82.6189H220.373V88.1961H220.205H214.625V93.0988H220.205V98.6788H225.108V93.0988H225.276H230.856V88.1961H225.276Z" fill="#73308B"/>
<path id="Vector" d="M134.043 104H85.2819C79.049 104 74 110.603 74 116.728C74 122.853 79.0522 130 85.2819 130H213V104H170.103C147.067 104 146.525 104 134.043 104Z" fill="#E8EDFC"/>
<g id="Group_2">
<path id="Vector_2" d="M217.127 147.553H216.537V104.709C216.537 100.997 214.425 99.6772 212.616 99.6772H85.0016C84.9918 99.6772 84.9821 99.6772 84.969 99.6772C80.9702 99.6772 77.1375 101.574 74.1816 105.019C71.4081 108.249 69.8145 112.42 69.8047 116.458C69.8047 116.481 69.8047 116.504 69.8047 117.648V202.19C69.8047 203.637 72.0143 205 73.7253 205H212.619C214.78 205 216.54 203.24 216.54 201.079V177.94H217.13C219.291 177.94 221.05 176.18 221.05 174.019V151.47C221.047 149.312 219.287 147.553 217.127 147.553ZM77.6427 132.049C79.8751 133.294 82.3976 133.956 84.9983 133.959H208.699V147.556H187.815C179.436 147.556 172.621 154.374 172.621 162.75C172.621 171.125 179.439 177.943 187.815 177.943H208.699V197.162H77.6427V132.049ZM213.206 155.394V170.102H187.811C183.757 170.102 180.456 166.804 180.456 162.746C180.456 158.689 183.754 155.391 187.811 155.391H213.206V155.394ZM208.695 126.115H85.8653C83.5318 126.115 81.8077 124.879 80.7746 123.843C78.8681 121.933 77.6362 119.056 77.6394 116.513C77.6427 114.574 78.8159 111.328 80.3868 109.888L80.4357 109.839C81.8306 108.447 84.0532 107.515 85.9695 107.515H85.9728H208.692V126.115H208.695Z" fill="#B41A83"/>
</g>
<g id="Card">
<path id="Vector_3" d="M192.169 180.18L115.921 194.223C112.227 194.903 108.685 192.46 108.004 188.769L98.7698 138.63C98.0898 134.936 100.533 131.393 104.224 130.713L180.471 116.668C184.165 115.988 187.708 118.431 188.388 122.122L197.623 172.261C198.303 175.955 195.86 179.5 192.169 180.18Z" fill="#E8EDFC"/>
<path id="Vector_4" d="M108.457 146.292L129.876 142.509L134.208 164.123L112.355 168.2L108.457 146.292Z" fill="#CAD9FC"/>
<g id="Group_3">
<path id="Vector_5" d="M129.36 174.142L117.223 176.376L118.366 182.585L130.503 180.351L129.36 174.142Z" fill="#B41A83"/>
<path id="Vector_6" d="M133.769 137.868L110.906 142.078L114.888 163.702L137.751 159.493L133.769 137.868Z" fill="#B41A83"/>
<path id="Vector_7" d="M128.273 145.389L118.723 147.147L120.386 156.18L129.936 154.421L128.273 145.389Z" fill="#F8FAFB"/>
<path id="Vector_8" d="M147.145 170.864L135.008 173.099L136.151 179.308L148.288 177.073L147.145 170.864Z" fill="#B41A83"/>
<path id="Vector_9" d="M164.926 167.591L152.789 169.826L153.932 176.035L166.07 173.8L164.926 167.591Z" fill="#B41A83"/>
<path id="Vector_10" d="M182.711 164.315L170.574 166.55L171.718 172.759L183.855 170.524L182.711 164.315Z" fill="#B41A83"/>
<path id="Vector_11" d="M178.684 142.439L166.547 144.674L167.69 150.883L179.827 148.648L178.684 142.439Z" fill="#F8FAFB"/>
<path id="Vector_12" d="M176.553 130.865L150.902 135.588L152.046 141.797L177.696 137.074L176.553 130.865Z" fill="#73308B"/>
<path id="Vector_13" d="M115.684 197.726C113.448 197.883 111.241 197.284 109.368 195.994C107.183 194.488 105.714 192.222 105.232 189.611L95.9977 139.472C95.0043 134.085 98.5806 128.892 103.97 127.901L180.218 113.859C182.826 113.377 185.468 113.943 187.656 115.448C189.841 116.954 191.311 119.22 191.792 121.831L201.027 171.97C201.508 174.581 200.943 177.222 199.437 179.408C197.932 181.594 195.665 183.063 193.054 183.544L116.804 197.583C116.431 197.653 116.057 197.701 115.684 197.726ZM181.768 119.976C181.631 119.984 181.494 120.004 181.354 120.029L105.106 134.074C103.122 134.441 101.804 136.352 102.171 138.336L111.406 188.475C111.582 189.437 112.125 190.271 112.928 190.825C113.734 191.379 114.705 191.589 115.668 191.41L191.915 177.368C192.878 177.192 193.712 176.649 194.266 175.846C194.82 175.04 195.03 174.069 194.85 173.106L185.616 122.967C185.44 122.005 184.897 121.171 184.094 120.617C183.405 120.141 182.594 119.92 181.768 119.976Z" fill="#73308B"/>
</g>
</g>
<g id="Group_4">
<path id="Vector_14" d="M192.169 179.18L115.921 193.223C112.227 193.903 108.685 191.46 108.004 187.769L98.7698 137.63C98.0898 133.936 100.533 130.393 104.224 129.713L180.471 115.668C184.165 114.988 187.708 117.431 188.388 121.122L197.623 171.261C198.303 174.955 195.86 178.5 192.169 179.18Z" fill="#E8EDFC"/>
<path id="Vector_15" d="M108.457 145.292L129.876 141.509L134.208 163.123L112.355 167.2L108.457 145.292Z" fill="#CAD9FC"/>
<g id="Group_5">
<path id="Vector_16" d="M129.36 173.142L117.223 175.376L118.366 181.585L130.503 179.351L129.36 173.142Z" fill="#B41A83"/>
<path id="Vector_17" d="M133.769 136.868L110.906 141.078L114.888 162.702L137.751 158.493L133.769 136.868Z" fill="#B41A83"/>
<path id="Vector_18" d="M128.273 144.389L118.723 146.147L120.386 155.18L129.936 153.421L128.273 144.389Z" fill="#F8FAFB"/>
<path id="Vector_19" d="M147.145 169.864L135.008 172.099L136.151 178.308L148.288 176.073L147.145 169.864Z" fill="#B41A83"/>
<path id="Vector_20" d="M164.926 166.591L152.789 168.826L153.932 175.035L166.07 172.8L164.926 166.591Z" fill="#B41A83"/>
<path id="Vector_21" d="M182.711 163.315L170.574 165.55L171.718 171.759L183.855 169.524L182.711 163.315Z" fill="#B41A83"/>
<path id="Vector_22" d="M178.684 141.439L166.547 143.674L167.69 149.883L179.827 147.648L178.684 141.439Z" fill="#F8FAFB"/>
<path id="Vector_23" d="M176.553 129.865L150.902 134.588L152.046 140.797L177.696 136.074L176.553 129.865Z" fill="#73308B"/>
<path id="Vector_24" d="M115.684 196.726C113.448 196.883 111.241 196.284 109.368 194.994C107.183 193.488 105.714 191.222 105.232 188.611L95.9977 138.472C95.0043 133.085 98.5806 127.892 103.97 126.901L180.218 112.859C182.826 112.377 185.468 112.943 187.656 114.448C189.841 115.954 191.311 118.22 191.792 120.831L201.027 170.97C201.508 173.581 200.943 176.222 199.437 178.408C197.932 180.594 195.665 182.063 193.054 182.544L116.804 196.583C116.431 196.653 116.057 196.701 115.684 196.726ZM181.768 118.976C181.631 118.984 181.494 119.004 181.354 119.029L105.106 133.074C103.122 133.441 101.804 135.352 102.171 137.336L111.406 187.475C111.582 188.437 112.125 189.271 112.928 189.825C113.734 190.379 114.705 190.589 115.668 190.41L191.915 176.368C192.878 176.192 193.712 175.649 194.266 174.846C194.82 174.04 195.03 173.069 194.85 172.106L185.616 121.967C185.44 121.005 184.897 120.171 184.094 119.617C183.405 119.141 182.594 118.92 181.768 118.976Z" fill="#73308B"/>
</g>
</g>
<path id="Vector_25" d="M177 162.502C177 168.854 181.975 174 188.11 174H217V151H188.11C181.991 150.98 177.016 156.099 177 162.432C177 162.455 177 162.478 177 162.502Z" fill="#CAD9FC"/>
<path id="Vector_26" d="M209 133H85V197H209V133Z" fill="white"/>
<path id="Vector_27" d="M216.985 151.217V173.777H184.329C182.689 173.777 180.927 172.859 179.461 170.832C177.998 168.811 177.001 165.872 177.001 162.497C177.001 159.121 177.997 156.182 179.459 154.161C180.925 152.135 182.686 151.217 184.329 151.217H216.985Z" fill="white" stroke="#B41A83" stroke-width="6"/>
<path id="Vector_28" d="M192.742 158.494H185.559V163.005H192.742V158.494Z" fill="#B41A83"/>
</g>
<path id="Vector 3" d="M85 130.5H211" stroke="#B41A83" stroke-width="7"/>
</g>
<defs>
<clipPath id="clip0">
<rect width="243.389" height="222.289" fill="white"/>
</clipPath>
</defs>
</svg>
